<svg xmlns="http://www.w3.org/2000/svg" width="40" height="46" viewBox="0 0 40 46">
    <g fill="#689BD6" fill-rule="nonzero" stroke="#689BD6" stroke-width=".5">
        <path d="M17.48 24.431l15.802 4.297 4.18-15.833-15.801-4.296-4.18 15.832zm16.8 6.023l-18.513-5.033 4.897-18.55 18.512 5.034-4.897 18.55z"/>
        <path d="M8.592 32L20.2 43.608 31.808 32 20.2 20.392 8.592 32zM20.2 45.6L6.6 32l13.6-13.6L33.8 32 20.2 45.6z"/>
        <path d="M6.472 28.654l15.832-4.18-4.296-15.802-15.833 4.18 4.297 15.802zm17.56-3.183l-18.55 4.897L.448 11.855l18.55-4.897 5.033 18.513z"/>
        <path d="M20.2 26.008L31.808 14.4 20.2 2.792 8.592 14.4 20.2 26.008zM33.8 14.4L20.2 28 6.6 14.4 20.2.8l13.6 13.6z"/>
        <path d="M21.864 37.228l15.833-4.18L33.4 17.246l-15.833 4.18 4.296 15.802zm17.56-3.183l-18.55 4.897-5.033-18.513 18.55-4.897 5.033 18.513z"/>
        <path d="M18.33 37.335l4.296-15.801-15.833-4.18-4.296 15.801 15.833 4.18zm6.023-16.798l-5.034 18.512L.77 34.152 5.804 15.64l18.549 4.897z"/>
    </g>
</svg>
