<?xml version="1.0" encoding="UTF-8"?>
<svg width="725px" height="834px" viewBox="0 0 725 834" version="1.1" xmlns="http://www.w3.org/2000/svg" xmlns:xlink="http://www.w3.org/1999/xlink">
    <!-- Generator: Sketch 49.3 (51167) - http://www.bohemiancoding.com/sketch -->
    <title>Group 9 Copy</title>
    <desc>Created with Sketch.</desc>
    <defs></defs>
    <g id="Page-1" stroke="none" stroke-width="1" fill="none" fill-rule="evenodd">
        <g id="Group-9-Copy" transform="translate(-126.000000, -8.000000)" fill="#001B24">
            <path d="M413.904865,345.500741 L628.99926,561.020646 L844.095135,345.500741 L628.99926,129.982319 L413.904865,345.500741 Z M628.99926,598 L377,345.500741 L628.99926,93 L881,345.500741 L628.99926,598 Z" id="Fill-68-Copy" transform="translate(629.000000, 345.500000) rotate(-30.000000) translate(-629.000000, -345.500000) "></path>
            <path d="M272.904865,589.500741 L487.99926,805.020646 L703.095135,589.500741 L487.99926,373.982319 L272.904865,589.500741 Z M487.99926,842 L236,589.500741 L487.99926,337 L740,589.500741 L487.99926,842 Z" id="Fill-68-Copy-3"></path>
            <path d="M129.904865,345.500741 L344.99926,561.020646 L560.095135,345.500741 L344.99926,129.982319 L129.904865,345.500741 Z M344.99926,598 L93,345.500741 L344.99926,93 L597,345.500741 L344.99926,598 Z" id="Fill-68-Copy-2" transform="translate(345.000000, 345.500000) rotate(-60.000000) translate(-345.000000, -345.500000) "></path>
            <path d="M276.904865,260.500741 L491.99926,476.020646 L707.095135,260.500741 L491.99926,44.9823195 L276.904865,260.500741 Z M491.99926,513 L240,260.500741 L491.99926,8 L744,260.500741 L491.99926,513 Z" id="Fill-68-Copy" transform="translate(492.000000, 260.500000) rotate(-90.000000) translate(-492.000000, -260.500000) "></path>
            <path d="M416.904865,504.500741 L631.99926,720.020646 L847.095135,504.500741 L631.99926,288.982319 L416.904865,504.500741 Z M631.99926,757 L380,504.500741 L631.99926,252 L884,504.500741 L631.99926,757 Z" id="Fill-68-Copy-3" transform="translate(632.000000, 504.500000) rotate(-60.000000) translate(-632.000000, -504.500000) "></path>
            <path d="M135.904865,506.500741 L350.99926,722.020646 L566.095135,506.500741 L350.99926,290.982319 L135.904865,506.500741 Z M350.99926,759 L99,506.500741 L350.99926,254 L603,506.500741 L350.99926,759 Z" id="Fill-68-Copy-2" transform="translate(351.000000, 506.500000) rotate(-120.000000) translate(-351.000000, -506.500000) "></path>
        </g>
    </g>
</svg>