<svg id="Layer_1" data-name="Layer 1" xmlns="http://www.w3.org/2000/svg" xmlns:xlink="http://www.w3.org/1999/xlink" viewBox="0 0 431.904 498.725"><defs><style>.cls-1{fill:#ff853f;}.cls-2{fill:url(#linear-gradient);}</style><linearGradient id="linear-gradient" x1="143.7809" y1="406.7312" x2="409.7756" y2="253.1647" gradientTransform="matrix(1, 0, 0, -1, -41.5, 590.4682)" gradientUnits="userSpaceOnUse"><stop offset="0" stop-color="#ffb53f"/><stop offset="1" stop-color="#ff853f"/></linearGradient></defs><title>bhub-logo</title><polygon class="cls-1" points="0 124.685 0 374.04 215.952 498.725 431.904 374.04 431.904 124.685 215.952 0 0 124.685"/><polygon points="26.589 140.031 26.589 358.694 215.952 468.019 405.315 358.694 405.315 140.031 215.952 30.706 26.589 140.031"/><g id="Layer_1-2-2" data-name="Layer 1-2-2"><path class="cls-2" d="M214.9583,75.9921l-75.0409,44.7037v88.726l-76.6593,41.907v85.177l150.4793,86.2275L368.6459,336.662V162.22ZM335.143,316.9435,214.0213,384.2759l-117.26-67.19v-45.91l43.2273-23.665v42.3613l75.24,48.3947,75.24-48.3521V211.1111l-75.0267-42.9292L190.2,181.9948v38.0741l24.9-13.6,42.0207,24.0057v41.1688l-41.8645,26.8308L173.42,271.6435V139.6193l42.0206-24.9853L335.1288,181.81Z"/></g></svg>