<svg xmlns="http://www.w3.org/2000/svg" width="975" height="160" viewBox="0 0 975 160">
    <g fill="none" fill-rule="evenodd" stroke="#689BD6" stroke-width="2">
        <path d="M285.862 48.672c1.178-.59 3.238-1.793 6.182-3.605-.793-.685-1.717-.987-2.773-.907-.94.07-2.092.928-2.586.09-.83-1.41-1.11-5.404-3.664-10.26-.951-1.807-2.706-5.107-5.264-9.899-1.117 6.624-1.347 10.98-.689 13.065 1.77 5.61 5.81 8.416 3.209 9.909-.979.56-5.577-.674-4.544 2.975.2.709 1.52.63 3.957-.238-1.045 3.876-1.428 6.564-1.149 8.063.166.89 1.136 1.477 1.915 1.923 1.754 1.004 4.8-10.907 6.53-12.003M345.849 114.595c1.317.031 3.701-.063 7.151-.282-.378-.976-1.053-1.676-2.023-2.102-.863-.379-2.283-.162-2.325-1.135-.071-1.633 1.556-5.292 1.581-10.778.01-2.043.01-5.78 0-11.212-4.096 5.324-6.344 9.061-6.742 11.212-1.071 5.784 1.18 10.16-1.819 10.255-1.127.036-4.608-3.213-5.409.494-.156.72 1.047 1.269 3.607 1.648-2.743 2.931-4.344 5.125-4.8 6.58-.272.863.309 1.837.787 2.597 1.077 1.71 9.359-7.378 11.4-7.533M134.131 73.565c1.216-.509 3.357-1.559 6.426-3.15-.72-.684-1.603-1.01-2.651-.981-.934.026-2.148.789-2.559-.03-.689-1.371-.6-5.173-2.673-9.891-.772-1.757-2.2-4.965-4.284-9.622-1.708 6.235-2.333 10.356-1.875 12.364 1.231 5.4 4.959 8.239 2.256 9.54-1.015.49-5.437-.883-4.752 2.624.132.681 1.44.664 3.924-.053-1.386 3.632-2.01 6.165-1.871 7.6.082.85.985 1.451 1.712 1.908 1.637 1.03 5.73-10.138 7.536-11.101M197.246 151.049c1.244.03 3.496-.06 6.754-.265-.357-.916-.994-1.575-1.91-1.974-.816-.356-2.156-.153-2.196-1.067-.068-1.534 1.47-4.971 1.493-10.124.008-1.92.008-5.43 0-10.533-3.87 5.001-5.992 8.512-6.368 10.533-1.011 5.433 1.114 9.543-1.718 9.633-1.064.034-4.351-3.018-5.108.464-.147.676.988 1.192 3.406 1.548-2.59 2.754-4.102 4.814-4.534 6.181-.256.81.293 1.726.745 2.44 1.017 1.606 8.838-6.93 10.767-7.077M207 40.278c12.884 1.152 6.52.863 24.82.41.909-.022-1.87.219-2.728-.06-2.52-.817-5.509-1.286-7.242-3.174-.76-.828 1.55-1.775 1.706-2.855.413-2.85 1.063-7.76.781-7.971l.136-2.79c-.63-.47-.932 1.264-1.585 1.707-.853.579-2.058 1.537-3.614 2.875.507-1.422.882-2.416 1.126-2.983.572-1.331 1.063-2.739 1.124-4.17.013-.296-.8-.196-.949.065l-6.184 8.1c-1.423 2.511-1.152 5.774-2.965 8.057-.75.945-2.55.079-3.76.411-.238.065-.57.771-.629.995L207 40.278zM282 116.278c12.368 1.152 6.26.863 23.827.41.872-.022-1.794.219-2.618-.06-2.42-.817-5.289-1.286-6.953-3.174-.73-.828 1.488-1.775 1.638-2.855.396-2.85 1.02-7.76.75-7.971l.13-2.79c-.605-.47-.895 1.264-1.521 1.707-.82.579-1.976 1.537-3.47 2.875.487-1.422.847-2.416 1.081-2.983.549-1.331 1.02-2.739 1.08-4.17.012-.296-.77-.196-.912.065l-5.937 8.1c-1.365 2.511-1.105 5.774-2.846 8.057-.72.945-2.448.079-3.61.411-.228.065-.547.771-.603.995l-.036 1.383zM151 115.238c11.853 1.209 5.999.906 22.834.43.836-.023-1.72.23-2.51-.063-2.317-.858-5.067-1.35-6.662-3.332-.7-.87 1.426-1.865 1.57-2.998.38-2.993.978-8.148.718-8.37l.125-2.93c-.58-.494-.857 1.327-1.458 1.793-.785.607-1.893 1.614-3.325 3.018.466-1.492.812-2.536 1.036-3.132.526-1.397.978-2.875 1.035-4.379.011-.31-.738-.205-.874.07l-5.69 8.504c-1.308 2.637-1.059 6.063-2.727 8.46-.69.992-2.346.083-3.46.432-.218.068-.524.81-.578 1.044l-.034 1.453zM398.52 21.827c11.9.587 6.039.59 22.826-.765.834-.068-1.705.318-2.509.068-2.36-.736-5.132-1.084-6.828-2.98-.744-.831 1.327-1.936 1.41-3.075.223-3.009.551-8.189.28-8.396l-.029-2.932c-.604-.464-.786 1.37-1.362 1.866-.751.648-1.806 1.71-3.162 3.188.387-1.515.678-2.575.87-3.182.452-1.423.827-2.923.804-4.427-.004-.31-.747-.167-.868.114l-5.237 8.791c-1.169 2.702-.74 6.11-2.281 8.592-.637 1.027-2.339.205-3.432.612-.215.08-.481.836-.523 1.073l.042 1.453zM2 100.238c11.853 1.209 5.999.906 22.834.43.836-.023-1.72.23-2.51-.063-2.317-.858-5.067-1.35-6.662-3.332-.7-.87 1.426-1.865 1.57-2.998.38-2.993.978-8.148.718-8.37l.125-2.93c-.58-.494-.857 1.327-1.458 1.793-.785.607-1.893 1.614-3.325 3.018.466-1.492.812-2.536 1.036-3.132.526-1.397.978-2.875 1.035-4.379.011-.31-.738-.205-.874.07L8.8 88.848c-1.308 2.637-1.059 6.063-2.727 8.46-.69.992-2.346.083-3.46.432-.218.068-.524.81-.578 1.044L2 100.238zM80 116.15c2.174.62 4.038 1.395 5.591 2.324 2.33 1.395 4.193 1.395 7.92 1.395 3.728 0 6.524-.93 9.319 0 2.796.929 0-1.395-2.33-1.86-1.553-.31-3.261-.929-5.125-1.858.932-1.55 1.553-3.098 1.864-4.648.466-2.323.932-8.365 2.33-9.294 1.397-.93.466-1.859-.466-1.394-.932.464-.466-1.394-1.398-.465-.932.93-7.92 6.97-9.318 8.365-.932.93-1.243 2.634-.932 5.112-1.658.265-3.056.575-4.194.93-1.137.354-2.225.819-3.261 1.394zM482.243 68.23c2.338.216 4.384.642 6.14 1.276 2.63.952 4.543.615 8.366-.06 3.824-.674 6.53-2.095 9.56-1.685 3.029.41-.242-1.373-2.713-1.41-1.647-.024-3.507-.325-5.58-.903.687-1.694 1.055-3.332 1.105-4.914.074-2.372-.497-8.406.775-9.574 1.273-1.169.156-1.915-.72-1.29-.875.627-.72-1.288-1.514-.204-.795 1.084-6.915 8.298-8.107 9.924-.794 1.083-.817 2.818-.068 5.202-1.655.561-3.035 1.12-4.14 1.674a18.487 18.487 0 0 0-3.104 1.963zM388 97.15c2.174.62 4.038 1.395 5.591 2.324 2.33 1.395 4.193 1.395 7.92 1.395 3.728 0 6.524-.93 9.319 0 2.796.929 0-1.395-2.33-1.86-1.553-.31-3.261-.929-5.125-1.858.932-1.55 1.553-3.098 1.864-4.648.466-2.323.932-8.365 2.33-9.294 1.397-.93.466-1.859-.466-1.394-.932.464-.466-1.394-1.398-.465-.932.93-7.92 6.97-9.318 8.365-.932.93-1.243 2.634-.932 5.112-1.658.265-3.056.575-4.194.93-1.137.354-2.225.819-3.261 1.394zM227.929 109.2c-.323 1.852 0 3.087.968 3.704 1.453.926-5.81-1.852-8.717-4.63-2.905-2.779 0-3.705 3.875-3.242 1.616.193.9.44.278.228-.868-.297-2.034-1.27-.666-2.609.666-.652.965 0 1.333 0 0 0 .774.176.667 0-.036-.058.317-.683 0-1.304-.667-1.305-.027-3.261 2.262-3.261 3.874 0 12.107.463 14.528.463 2.422 0-3.874.463-6.78 2.778-1.937 1.544-2.744 2.933-2.421 4.168 1.937 1.235 3.874 1.852 5.811 1.852 2.906 0 2.422 2.779-.484 2.316-2.906-.463-4.359-.926-6.78-.926-1.614 0-2.906.154-3.874.463zM298.557 147.2c-.31 1.852 0 3.087.928 3.704 1.392.926-5.57-1.852-8.354-4.63-2.784-2.779 0-3.705 3.713-3.242 1.549.193.862.44.267.228-.832-.297-1.95-1.27-.639-2.609.64-.652.925 0 1.278 0 0 0 .742.176.639 0-.034-.058.304-.683 0-1.304-.639-1.305-.025-3.261 2.168-3.261 3.713 0 11.602.463 13.923.463 2.32 0-3.713.463-6.498 2.778-1.856 1.544-2.63 2.933-2.32 4.168 1.856 1.235 3.713 1.852 5.57 1.852 2.784 0 2.32 2.779-.465 2.316-2.785-.463-4.177-.926-6.497-.926-1.547 0-2.785.154-3.713.463zM87.162 43.234c.809 1.695 1.77 2.53 2.885 2.502 1.672-.04-5.624 1.678-9.5.999-3.874-.679-2.124-3.035 1.183-4.785 1.38-.73.959-.134.35.033-.852.234-2.326.078-2.02-1.77.15-.9.757-.53 1.047-.733 0 0 .708-.282.523-.367-.061-.027-.143-.734-.748-1.068-1.272-.702-1.891-2.657-.095-3.915 3.042-2.13 9.77-6.275 11.671-7.606 1.9-1.331-2.776 2.509-3.729 6.003-.635 2.329-.472 3.91.49 4.744 2.229-.053 4.104-.612 5.624-1.677 2.281-1.597 3.495.945.948 2.163-2.546 1.218-3.953 1.637-5.853 2.968-1.268.888-2.193 1.724-2.776 2.51zM171.161 62.61c-4.588 0-6.117-.803-4.588-2.409 1.53-1.605 3.059-1.926 4.588-.963 1.835-.642 2.753-2.087 2.753-4.335 0-3.372 8.258-4.817 11.01-4.817 2.753 0-2.752 3.372-2.752 6.262v4.817c3.67.963 5.964 1.445 6.882 1.445 1.376 0 2.752 2.408 1.376 2.408s-5.505-.963-6.882-.963c-.917 0-2.294.32-4.129.963-.306 5.138-1.529 9.152-3.67 12.042-.337.456-.838.798-1.502 1.026-3.184-5.162-4.519-8.555-4.003-10.178.611-1.926.917-3.693.917-5.298zM960 79.086c5.6 2.018 8.602 3.975 9.006 5.872.604 2.845 4.104 18.218 4.233 19.919.13 1.7-1.466 2.39-2.562 2.031-1.095-.359-1.132-2.362-1.726-3.437-3.378-6.113-7.354-9.948-11.929-11.505-4.133-1.407-6.798-2.833-7.993-4.279-.36-.436 1.291-.69-2.029-.601-3.32.089-1.516-.103-5.813.81-2.452.522-5.88 1.614-10.282 3.276-.741.28-2.306.887-2.608-.535-.303-1.423 3.55-1.983 6.556-4.368a48.968 48.968 0 0 1 6.557-4.368c-2.366-6.436-5.082-9.824-8.149-10.164-4.599-.51-6.824-.717-7.766-1.323-.941-.607-8.89-2.393.828-3.15 9.718-.758 18.094.615 21.261 1.429 2.112.542 4.584 2.673 7.416 6.393 0 1.333.667 1.333 2 0 2-2 5.265-3.118 7-2 1.735 1.118 4.297 4.087 0 5-2.865.609-4.198.942-4 1zM922.424 104.87c-7 1-9 5-12.31 6.71M913.652 88.69C911 87.086 906 89.086 904 90.086M915.58 96.52c-13.924 4.126-15.746 6.063-23.58 12.566"/>
    </g>
</svg>
