<?xml version="1.0" encoding="UTF-8"?>
<svg width="14px" height="14px" viewBox="0 0 14 14" version="1.1" xmlns="http://www.w3.org/2000/svg" xmlns:xlink="http://www.w3.org/1999/xlink">
    <!-- Generator: Sketch 48.2 (47327) - http://www.bohemiancoding.com/sketch -->
    <title>Group</title>
    <desc>Created with Sketch.</desc>
    <defs></defs>
    <g id="DAO-Info" stroke="none" stroke-width="1" fill="none" fill-rule="evenodd" transform="translate(-285.000000, -31.000000)">
        <g id="Group-3" transform="translate(0.000000, 3.000000)" fill="#000000" fill-rule="nonzero">
            <g id="flaticon1516587068-svg" transform="translate(285.000000, 28.000000)">
                <g id="Group">
                    <path d="M13.2751566,5.52696033 L12.2931106,5.36036326 C12.1908142,5.03009186 12.0592902,4.71151148 11.8985386,4.40754489 L12.4772443,3.59794154 C12.7227557,3.25305637 12.6847599,2.78249269 12.3837161,2.48437161 L11.5127349,1.6133904 C11.3490605,1.44971608 11.1327766,1.35911065 10.9018789,1.35911065 C10.7206681,1.35911065 10.5482255,1.41464301 10.4020877,1.51986221 L9.58956159,2.09856785 C9.27390397,1.93197077 8.94363257,1.79460125 8.60167015,1.6923048 L8.43799582,0.721949896 C8.36784969,0.303995825 8.00835073,2.92275574e-05 7.58455115,2.92275574e-05 L6.35407098,2.92275574e-05 C5.9302714,2.92275574e-05 5.57077244,0.303995825 5.5006263,0.721949896 L5.33110647,1.71568685 C5.00375783,1.8179833 4.68517745,1.95243006 4.38121086,2.11610438 L3.57745303,1.53739875 C3.43131524,1.43217954 3.2559499,1.37664718 3.07473904,1.37664718 C2.84384134,1.37664718 2.62463466,1.46725261 2.46388309,1.63092693 L1.58997912,2.50190814 C1.29185804,2.80002923 1.25093946,3.2705929 1.49645094,3.61547808 L2.08100209,4.43677244 C1.92025052,4.7436618 1.79164927,5.06224217 1.69227557,5.39251357 L0.721920668,5.55618789 C0.303966597,5.62633403 -2.84e-14,5.98583299 -2.84e-14,6.40963257 L-2.84e-14,7.64011273 C-2.84e-14,8.06391232 0.303966597,8.42341127 0.721920668,8.49355741 L1.71565762,8.66307724 C1.81795407,8.99042589 1.95240084,9.30900626 2.11607516,9.61297286 L1.54029228,10.4138079 C1.29478079,10.7586931 1.33277662,11.2292568 1.63382046,11.5273779 L2.50480167,12.3983591 C2.66847599,12.5620334 2.88475992,12.6526388 3.11565762,12.6526388 C3.29686848,12.6526388 3.46931106,12.5971065 3.61544885,12.4918873 L4.43674322,11.9073361 C4.73194154,12.0622422 5.04175365,12.1879207 5.36033403,12.2872944 L5.52400835,13.2693403 C5.59415449,13.6872944 5.95365344,13.991261 6.37745303,13.991261 L7.61085595,13.991261 C8.03465553,13.991261 8.39415449,13.6872944 8.46430063,13.2693403 L8.6308977,12.2872944 C8.9611691,12.1849979 9.27974948,12.0534739 9.58371608,11.8927223 L10.3933194,12.471428 C10.5394572,12.5766472 10.7148225,12.6321795 10.8960334,12.6321795 C11.1269311,12.6321795 11.343215,12.5415741 11.5068894,12.3778998 L12.3778706,11.5069186 C12.6759916,11.2087975 12.7169102,10.7382338 12.4713987,10.3933486 L11.8926931,9.58082255 C12.0534447,9.27393319 12.1878914,8.95535282 12.2872651,8.62800418 L13.2693111,8.46432985 C13.6872651,8.39418372 13.9912317,8.03468476 13.9912317,7.61088518 L13.9912317,6.38040501 C13.9970772,5.95660543 13.6931106,5.59710647 13.2751566,5.52696033 Z M13.2079332,7.61088518 C13.2079332,7.648881 13.1816284,7.68103132 13.1436326,7.68687683 L11.9160752,7.89146973 C11.7611691,7.91777453 11.6384134,8.031762 11.6004175,8.18082255 C11.4893528,8.61046764 11.319833,9.0225762 11.091858,9.4054572 C11.0129436,9.53990397 11.0187891,9.70650104 11.1093946,9.8351023 L11.8313152,10.8522213 C11.8517745,10.8814489 11.8488518,10.9252902 11.822547,10.951595 L10.9515658,11.8225762 C10.9311065,11.8430355 10.9106472,11.8459582 10.8960334,11.8459582 C10.8784969,11.8459582 10.8638831,11.8401127 10.8521921,11.8313445 L9.83799582,11.1094238 C9.71231733,11.0188184 9.54279749,11.0129729 9.40835073,11.0918873 C9.02546973,11.3198622 8.61336117,11.489382 8.18371608,11.6004468 C8.03173278,11.6384426 7.9177453,11.7641211 7.89436326,11.9161044 L7.6868476,13.1436618 C7.68100209,13.1816576 7.64885177,13.2079624 7.61085595,13.2079624 L6.38037578,13.2079624 C6.34237996,13.2079624 6.31022965,13.1816576 6.30438413,13.1436618 L6.09979123,11.9161044 C6.07348643,11.7611983 5.95949896,11.6384426 5.81043841,11.6004468 C5.39248434,11.4923048 4.98914405,11.3257077 4.61210856,11.1094238 C4.55073069,11.0743507 4.48058455,11.0568142 4.41336117,11.0568142 C4.33444676,11.0568142 4.2526096,11.0801962 4.18538622,11.1298831 L3.16242171,11.8576493 C3.14780793,11.8664175 3.13319415,11.872263 3.11858038,11.872263 C3.10688935,11.872263 3.08350731,11.8693403 3.06304802,11.848881 L2.19206681,10.9778998 C2.165762,10.951595 2.16283925,10.9106764 2.18329854,10.8785261 L2.90229645,9.87017537 C2.99290188,9.74157411 2.99874739,9.57205428 2.91983299,9.43760752 C2.69185804,9.05764927 2.51649269,8.64554071 2.40542797,8.21589562 C2.36450939,8.06683507 2.24175365,7.9528476 2.08977035,7.9265428 L0.853444676,7.71610438 C0.815448852,7.71025887 0.78914405,7.67810856 0.78914405,7.64011273 L0.78914405,6.40963257 C0.78914405,6.37163674 0.815448852,6.33948643 0.853444676,6.33364092 L2.07223382,6.12904802 C2.22713987,6.10274322 2.35281837,5.98875574 2.3908142,5.83677244 C2.49895616,5.40712735 2.66555324,4.99209603 2.89060543,4.60921503 C2.96951983,4.47476827 2.96075157,4.30817119 2.87014614,4.18249269 L2.14237996,3.15952818 C2.12192067,3.13030063 2.12484342,3.08645929 2.15114823,3.06015449 L3.02212944,2.18917328 C3.04258873,2.16871399 3.06304802,2.16579123 3.0776618,2.16579123 C3.09519833,2.16579123 3.10981211,2.17163674 3.12150313,2.18040501 L4.12985386,2.89940292 C4.25845511,2.99000835 4.42797495,2.99585386 4.56242171,2.91693946 C4.94237996,2.68896451 5.35448852,2.51359916 5.78413361,2.40253445 C5.93319415,2.36161587 6.04718163,2.23886013 6.07348643,2.08687683 L6.28392484,0.850551148 C6.28977035,0.812555324 6.32192067,0.786250522 6.35991649,0.786250522 L7.59039666,0.786250522 C7.62839248,0.786250522 7.6605428,0.812555324 7.66638831,0.850551148 L7.87098121,2.06934029 C7.89728601,2.22424635 8.01127349,2.34992484 8.16325678,2.38792067 C8.6045929,2.49898539 9.02546973,2.67142797 9.417119,2.90232568 C9.55156576,2.98124008 9.71816284,2.97539457 9.84676409,2.88478914 L10.8551148,2.15994572 C10.8697286,2.15117745 10.8843424,2.14533194 10.8989562,2.14533194 C10.9106472,2.14533194 10.9340292,2.1482547 10.9544885,2.16871399 L11.8254697,3.0396952 C11.8517745,3.066 11.8546973,3.10691858 11.834238,3.13906889 L11.1123173,4.15326514 C11.0217119,4.27894363 11.0158664,4.44846347 11.0947808,4.58291023 C11.3227557,4.96579123 11.4922756,5.37789979 11.6033403,5.80754489 C11.6413361,5.95952818 11.7670146,6.07351566 11.9189979,6.0968977 L13.1465553,6.30441336 C13.1845511,6.31025887 13.2108559,6.34240919 13.2108559,6.38040501 L13.2108559,7.61088518 L13.2079332,7.61088518 Z" id="Shape"></path>
                    <path d="M6.99707724,3.97497704 C5.33110647,3.97497704 3.97787056,5.32821294 3.97787056,6.99418372 C3.97787056,8.66015449 5.33110647,10.0133904 6.99707724,10.0133904 C8.66304802,10.0133904 10.0162839,8.66015449 10.0162839,6.99418372 C10.0162839,5.32821294 8.66304802,3.97497704 6.99707724,3.97497704 Z M6.99707724,9.22424635 C5.76659708,9.22424635 4.76701461,8.22466388 4.76701461,6.99418372 C4.76701461,5.76370355 5.76659708,4.76412109 6.99707724,4.76412109 C8.22755741,4.76412109 9.22713987,5.76370355 9.22713987,6.99418372 C9.22713987,8.22466388 8.22755741,9.22424635 6.99707724,9.22424635 Z" id="Shape"></path>
                </g>
            </g>
        </g>
    </g>
</svg>