<?xml version="1.0" encoding="iso-8859-1"?>
<!-- Generator: Adobe Illustrator 19.0.0, SVG Export Plug-In . SVG Version: 6.00 Build 0)  -->
<svg version="1.1" id="Capa_1" xmlns="http://www.w3.org/2000/svg" xmlns:xlink="http://www.w3.org/1999/xlink" x="0px" y="0px"
	 viewBox="0 0 502.496 502.496" style="enable-background:new 0 0 502.496 502.496;" xml:space="preserve">
<g>
	<g>
		<path d="M251.23,438.496c-89.728,0-162.48,14.336-162.48,32.032c0,17.648,72.752,31.968,162.48,31.968
			c89.712,0,162.464-14.32,162.464-31.968C413.694,452.848,340.958,438.496,251.23,438.496z M251.23,486.496
			c-71.92,0-118.768-8.72-138.416-15.984c19.648-7.264,66.48-16.016,138.416-16.016c71.936,0,118.768,8.736,138.4,16.016
			C369.982,477.776,323.15,486.496,251.23,486.496z"/>
	</g>
</g>
<g>
	<g>
		<path d="M449.982,223.744c-5.104-14.336-24.288-20.192-44.192-14c-19.84-10.832-29.024-13.296-33.04-23.984l-17.264-46.064
			c-5.216-13.968-16.992-24.4-31.472-27.968l-40.48-9.92v-10.24c9.6-12.768,15.728-29.536,15.728-43.568c0-26.512-21.488-48-48-48
			c-26.512,0-48,21.488-48,48c0,13.888,5.984,30.464,15.408,43.216v11.376l-37.376,9.168c-14.48,3.536-26.256,13.984-31.472,27.936
			l-17.28,46.064c-4.144,11.072-14.608,13.92-33.952,24.48c-18.928-6.528-40.336-2.512-46.048,13.488
			c-6.896,19.36,15.216,40.592,41.648,42.64c-1.84,4.048-2.928,8.496-2.928,13.216c0,12.832,7.6,23.808,18.48,28.912l71.52,31.68
			c-17.216,8.352-31.568,12.656-42.976,27.184c-7.376,9.392-9.456,19.184-5.888,27.568c7.84,18.4,35.888,18.064,57.328,8.912
			c9.36-3.984,17.488-9.536,23.632-15.84l37.92-16.8l37.92,16.8c6.144,6.304,14.272,11.872,23.616,15.84
			c24.096,10.272,50.16,7.968,57.344-8.912c12.304-28.896-32.88-46.976-48.88-54.736l71.52-31.68
			c10.864-5.12,18.464-16.096,18.464-28.928c0-4.752-1.136-9.184-3.008-13.232C435.998,264.288,456.606,242.304,449.982,223.744z
			 M251.262,16c17.648,0,32,14.352,32,32c0,19.504-16.544,47.232-32,47.232s-32-27.728-32-47.232
			C219.262,30.352,233.614,16,251.262,16z M267.39,106.352l-16.176,17.616l-16.544-17.792c5.2,3.088,10.736,5.056,16.592,5.056
			C256.942,111.232,262.334,109.28,267.39,106.352z M147.518,191.392l17.28-46.064c3.376-8.992,10.96-15.728,20.288-18.016
			l38.576-9.456l14.112,15.184c7.28,7.824,19.68,7.792,26.912-0.08l14.432-15.712l41.104,10.08
			c9.328,2.288,16.912,9.024,20.288,18.016l17.264,46.064c5.744,15.328,16.512,19.392,30.816,27.2
			c-2.928,2.272-5.584,4.752-7.696,7.488c-2.912,3.792-4.816,7.856-5.696,11.904c-14.496-6.064-24.704-9.744-33.504-25.04
			l-22.128-38.544c-2.848-4.976-10.464-2.944-10.464,2.784v80.432l34,4.08l-91.84,44.512l-91.856-44.544l36.768-4.4v-79.968
			c0-5.76-7.664-7.712-10.512-2.704c-31.184,54.992-28.24,51.936-58.128,64.432c-1.216-7.04-5.712-13.92-12.496-19.536
			C129.758,211.472,141.662,207.088,147.518,191.392z M355.806,247.072l-30.688-3.68v-27.216l2.704,4.704
			C334.286,232.176,344.142,241.344,355.806,247.072z M150.366,246.64c15.088-7.696,22.24-17.264,29.824-30.464v26.896
			L150.366,246.64z M85.518,248.448c-7.84-2.784-20.592-11.84-17.904-19.328c2.656-7.504,18.224-6.448,26.08-3.664
			c12.592,4.496,19.84,13.92,17.92,19.328C109.662,250.224,98.078,252.944,85.518,248.448z M116.542,294.016
			c-5.728-2.688-9.28-8.208-9.28-14.432c0-11.328,11.776-20.4,24.304-13.632l101.36,49.152l-32.816,15.92L116.542,294.016z
			 M183.438,389.104c-9.488,4.032-32.512,8.544-36.336-0.464c-3.856-9.024,15.424-22.512,24.832-26.528
			c9.344-3.984,32.432-8.672,36.336,0.48C212.158,371.648,192.894,385.072,183.438,389.104z M278.078,365.568l-7.072-3.136
			l7.84-3.472C278.254,361.104,277.998,363.296,278.078,365.568z M330.574,362.112c18.672,7.968,27.184,21.024,24.848,26.528
			c-3.824,9.008-26.832,4.528-36.336,0.464c-9.488-4.032-28.688-17.472-24.848-26.528
			C298.19,353.312,321.198,358.112,330.574,362.112z M386.302,293.872l-161.856,71.696c0.112-3.184-0.192-6.32-1.44-9.232
			c-2.368-5.568-7.072-9.6-13.328-12.144l161.984-78.576c10.944-6.016,23.6,2.16,23.6,13.968
			C395.262,285.808,391.71,291.328,386.302,293.872z M417.006,248.448c-7.984,2.848-23.392,3.808-26.096-3.648
			c-2.64-7.52,10.016-16.528,17.904-19.328c7.952-2.848,23.376-3.904,26.096,3.648C437.55,236.624,424.926,245.632,417.006,248.448z
			"/>
	</g>
</g>
<g>
</g>
<g>
</g>
<g>
</g>
<g>
</g>
<g>
</g>
<g>
</g>
<g>
</g>
<g>
</g>
<g>
</g>
<g>
</g>
<g>
</g>
<g>
</g>
<g>
</g>
<g>
</g>
<g>
</g>
</svg>
