<?xml version="1.0" encoding="UTF-8"?>
<svg width="512px" height="683px" viewBox="0 0 512 683" version="1.1" xmlns="http://www.w3.org/2000/svg" xmlns:xlink="http://www.w3.org/1999/xlink">
    <!-- Generator: Sketch 48.2 (47327) - http://www.bohemiancoding.com/sketch -->
    <title>Group</title>
    <desc>Created with Sketch.</desc>
    <defs></defs>
    <g id="Page-1" stroke="none" stroke-width="1" fill="none" fill-rule="evenodd">
        <g id="Group" fill="#000000">
            <g id="meditate" fill-rule="nonzero">
                <path d="M255.996,0 C214.54,0 181.006,34.529 181.006,75.99 C181.006,117.339 214.646,150.98 255.996,150.98 C297.345,150.98 330.986,117.339 330.986,75.99 C330.986,34.532 297.456,0 255.996,0 Z M255.996,120.984 C231.186,120.984 211.002,100.8 211.002,75.99 C211.002,51.058 231.606,29.996 255.996,29.996 C280.386,29.996 300.99,51.058 300.99,75.99 C300.99,100.799 280.805,120.984 255.996,120.984 Z" id="Shape"></path>
                <path d="M477.897,32.34 C453.884,26.317 429.376,40.894 423.315,65.074 L401.841,151.078 L320.812,151.078 C320.811,151.078 320.811,151.078 320.81,151.078 C310.33,151.078 300.125,154.673 292.075,161.382 L248.735,197.5 L215.394,164.159 C206.896,155.66 195.653,151.081 183.733,151.081 L110.158,151.08 L88.682,65.063 C82.598,40.791 57.998,26.345 34.118,32.335 C10.056,38.345 -4.632,62.823 1.378,86.906 L31.375,206.89 C36.39,226.954 54.338,240.967 75.019,240.967 L151.01,240.967 C151.01,252.124 151.01,318.554 151.01,329.203 L140.392,325.614 C109.08,314.941 74.925,331.734 64.254,363.045 C53.582,394.356 70.374,428.512 101.686,439.183 L125.154,447.182 C124.43,455.132 125.307,463.328 128.033,471.327 C138.662,502.51 173.567,519.53 205.15,508.765 L256.121,491.477 L306.822,508.757 C338.213,519.458 372.261,502.715 382.96,471.325 C385.624,463.508 386.637,455.429 386.018,447.42 L410.286,439.189 C410.294,439.187 410.301,439.184 410.307,439.182 C441.618,428.51 458.409,394.355 447.738,363.045 C437.043,331.668 402.02,314.906 370.601,325.614 L360.983,328.893 L360.983,240.967 L436.98,240.967 C457.661,240.967 475.609,226.954 480.625,206.89 L510.623,86.9 C516.63,62.824 501.943,38.346 477.897,32.34 Z M75.019,210.972 C68.126,210.972 62.146,206.303 60.474,199.616 L30.481,79.637 C28.476,71.604 33.37,63.44 41.403,61.433 C49.318,59.446 57.561,64.273 59.585,72.347 L83.898,169.612 C85.568,176.288 91.566,180.972 98.449,180.972 L183.734,180.973 C187.64,180.973 191.352,182.533 194.185,185.365 L225.599,216.779 L181.009,253.938 L181.009,225.97 C181.009,217.687 174.294,210.972 166.011,210.972 L75.019,210.972 Z M135.292,418.949 L111.362,410.791 C95.707,405.456 87.31,388.377 92.646,372.722 C97.981,357.067 115.061,348.673 130.751,354.02 L209.33,380.579 L166.462,395.19 C153.227,399.701 142.526,408.258 135.292,418.949 Z M354.566,461.65 C349.218,477.343 332.191,485.714 316.497,480.366 L302.724,475.672 L355.593,457.74 C355.332,459.052 355.006,460.36 354.566,461.65 Z M380.276,354.006 C396.243,348.565 414.087,357.298 419.344,372.721 C424.679,388.376 416.284,405.453 400.632,410.789 C392.195,413.651 206.106,476.765 195.494,480.364 C179.697,485.748 161.745,477.256 156.426,461.648 C151.238,446.423 160.265,428.989 176.14,423.579 L380.276,354.006 Z M481.52,79.631 L451.524,199.614 C449.851,206.301 443.871,210.971 436.978,210.971 L345.983,210.971 C337.7,210.971 330.985,217.686 330.985,225.969 L330.985,339.116 L255.975,364.681 L181.005,339.341 L181.005,292.985 C184.729,289.881 304.69,189.912 311.276,184.424 C313.986,182.166 317.282,180.973 320.81,180.973 L413.55,180.972 C420.432,180.972 426.431,176.288 428.1,169.612 L452.411,72.357 C454.421,64.34 462.602,59.427 470.611,61.438 C478.631,63.44 483.523,71.605 481.52,79.631 Z" id="Shape"></path>
            </g>
            <ellipse id="Oval" opacity="0.400000006" cx="258.5" cy="656" rx="113.5" ry="27"></ellipse>
        </g>
    </g>
</svg>