<svg xmlns="http://www.w3.org/2000/svg" width="61" height="48" viewBox="0 0 61 48">
    <g fill="none" fill-rule="evenodd" stroke="#689BD6" transform="translate(1 3)">
        <path stroke-width="1.7" d="M11.105 5.871c3.756-2.187 7.982-3.125 11.739-2.812 5.635.468 11.739 3.281 14.556 7.969 2.818 4.687 4.696 10.782 7.983 9.844 2.191-.625 3.443-2.188 3.756-4.688-2.504-.312-4.07-1.094-4.695-2.344-.626-1.25-.94-3.437-.94-6.562 3.13 0 5.01.312 5.635.937.626.625 1.252 1.875 1.878 3.75.627-1.875 1.879-3.281 3.757-4.219 1.878-.937 3.287-.937 4.226 0 0 3.438-.47 5.626-1.409 6.563-.939.938-2.347 1.563-4.226 1.875 1.879 10-.313 17.189-6.574 21.564-9.39 6.563-27.234 10.313-39.443-.938-8.139-7.5-8.452-21.095-.939-28.126"/>
        <path stroke-width="1.7" d="M32 30.118c5.346 1.882 9.277 2.353 11.792 1.411 2.516-.94 1.101-3.45-4.245-7.529"/>
        <path fill="#689BD6" stroke-width="1.7" d="M15.833 21.772c1.933 0 3.544-.59 4.832-1.772.967 5.022-.16 7.68-3.382 7.975-3.222.296-5.316-2.067-6.283-7.089 1.289.59 2.9.886 4.833.886z"/>
        <circle cx="27" cy="17" r="3" fill="#689BD6" stroke-width="1.7"/>
        <circle cx="7.5" cy="17.5" r="2.5" fill="#689BD6" stroke-width="1.7"/>
        <circle cx="28.5" cy="16.5" r="1.5" fill="#FFF" stroke-width=".7"/>
        <circle cx="7.5" cy="17.5" r="1.5" fill="#FFF" stroke-width=".7"/>
        <path stroke-width="1.7" d="M15 8c-.381 3.385-1.714 5.385-4 6M12 6c-.286 2.82-1.286 4.487-3 5M9 4c-.286 2.82-1.286 4.487-3 5"/>
        <path stroke-width="1.7" d="M2 0c8.372 5.152 13.023 8.03 13.953 8.636 1.396.91 1.396 5 0 5.91-1.395.909-3.72.454-6.046-1.364C8.357 11.97 5.721 7.576 2 0z"/>
        <path fill="#FFF" stroke-width=".7" d="M14 26.424c1.768-2.049 3.608-2.799 5.52-2.25.104.03.264.08.48.15-.857 2.45-1.857 3.676-3 3.676s-2.143-.525-3-1.576z"/>
        <path stroke-width="1.7" d="M7 37c.613-4.024 5.52-6.036 14.72-6.036 13.8 0 10.58 2.322 18.86 2.322 5.52 0 9.66-3.096 12.42-9.286" opacity=".3"/>
        <path stroke-width="1.7" d="M6 34.36c-1.306.64-2.939.8-4.898.48-1.96-.32-1.306-1.6 1.96-3.84"/>
    </g>
</svg>
