<svg xmlns="http://www.w3.org/2000/svg" width="1336" height="199" viewBox="0 0 1336 199">
    <g fill="none" fill-rule="evenodd" stroke="#689BD6" stroke-width="2">
        <g transform="translate(503 56)">
            <path d="M274 14.96h6c5.523 0 10 4.477 10 10v32.08c0 5.523-4.477 10-10 10h-6V14.96zM44 10h21v62H44c-5.523 0-10-4.477-10-10V20c0-5.523 4.477-10 10-10zM9 32h25v18H9a9 9 0 0 1 0-18zM311 32h-21v18h21a9 9 0 1 0 0-18zM147.5 18H123v11h24.5a5.5 5.5 0 0 0 0-11zM147.5 54H123v11h24.5a5.5 5.5 0 0 0 0-11zM97 34.912h26v12.176H97a4 4 0 0 1-4-4v-4.176a4 4 0 0 1 4-4zM214 4h50c5.523 0 10 4.477 10 10v54c0 5.523-4.477 10-10 10h-50V4z"/>
            <path d="M77 7.627h42a4 4 0 0 1 4 4v58.746a4 4 0 0 1-4 4H77V7.627z"/>
            <rect width="12" height="82" x="202" rx="6"/>
            <path stroke-linecap="round" d="M214 68h33M46 27v28M54 27v28M291 44h20"/>
            <rect width="12" height="82" x="65" rx="6"/>
        </g>
        <path d="M651.5 37.25l-8-11M698.5 37.25l8-11M675 34.25v-15M651.5 150.25l-8 11M698.5 150.25l8 11M675 153.25v15M823 96.98c13.654 0 28.324-3.251 38.036-10 25.91-18.007 42.941-46.758 72.89-46.342C960.087 41.002 973 82 988.302 98.681 1058.686 175.399 1143.326 118.29 1156 26c.654-4.761 0-13-1-17.657-.654-3.045-3.329-11.364-13.03-5.017-9.7 6.346-14.873 22.958-15.57 35.209-1.514 26.568 31.123 70.444 57.456 82.444 48.742 22.213 121.91 22 152.144-24.585M-1.427 194.439c15.801-.311 157.945 16.296 230.795-28.223 39.1-23.895 41.733-64.339 114.986-70.748 41.088-3.594 70.544 35.533 40.534 48.28-11.712 4.974-26.627-2.864-26.522-13.252.1-9.8 7.463-17.219 21.455-22.07 12.925-4.48 24.034-7.123 46.007-9.586 30.19-3.384 48.16-1.292 77.172-1.84"/>
    </g>
</svg>
