<svg xmlns="http://www.w3.org/2000/svg" width="61" height="86" viewBox="0 0 61 86">
    <g fill="none" fill-rule="evenodd" transform="translate(-3)">
        <ellipse cx="34" cy="82.451" fill="#689BD6" opacity=".2" rx="22" ry="3.451"/>
        <path fill="#689BD6" d="M33.343 3.073a6.066 6.066 0 0 0-6.058 6.059 6.066 6.066 0 0 0 6.058 6.059 6.066 6.066 0 0 0 6.06-6.059 6.066 6.066 0 0 0-6.06-6.059m0 15.191c-5.036 0-9.132-4.097-9.132-9.132C24.211 4.097 28.307 0 33.343 0c5.035 0 9.131 4.097 9.131 9.132 0 5.035-4.096 9.132-9.13 9.132m-14.459 8.208c.883.006 1.766.011 2.648.011h.217c1.515 0 2.386.674 2.664 2.061.266 1.338.412 2.072.996 2.072.376 0 .862-.356 1.687-.986.55-.419 1.047-.906 1.528-1.377l.353-.344c.482-.465.6-.97.358-1.544-.66-1.577-3.827-3.683-5.553-3.694l-.642-.004a709.344 709.344 0 0 0-4.126-.015c-1.154 0-2.309.005-3.463.02-1.365 0-2.194-.588-2.463-1.748a42.537 42.537 0 0 0-.396-1.533c-.206-.755-.419-1.535-.56-2.328-.347-1.934-.889-3.864-1.414-5.729 0 0-.326-1.165-.444-1.598-.275-1.004-.975-1.58-1.92-1.58-.322 0-.666.069-1.025.204-1.045.393-.865 1.882-.666 2.734.244 1.029.858 3.571.858 3.571.734 3.033 1.492 6.17 2.15 9.304.38 1.825 1.18 2.536 2.855 2.536l.153-.002c1.187-.032 2.374-.041 3.56-.041.81 0 2.645.01 2.645.01m23.826-3.843c-1.53 0-2.814.481-4.038 1.512a599.449 599.449 0 0 1-5.238 4.342l-.257.212c-1.41 1.161-2.82 2.322-4.222 3.495-.278.233-.562.461-.847.69-2.168 1.742-4.41 3.544-3.563 7.166.255 1.086.523 1.543 1.52 1.943l2.416.965c1.544.618 4.816 1.703 4.845 1.712.165-.012 5.194-1.626 7.068-2.318l.297-.105c.6-.207 1.277-.442 1.642-.999.324-.498.47-1.125.43-1.863-.067-1.23-.05-2.477-.035-3.682.007-.53.014-1.058.014-1.584.001-.516.01-1.033.017-1.549.018-1.154.037-2.346-.038-3.529-.056-.892.103-1.524.488-1.934.395-.422 1.053-.627 2.012-.627.854.007 1.647.01 2.438.01l4.333-.008c.721 0 2.16.008 2.16.008 1.711 0 2.638-.731 3.005-2.371.852-3.811 1.808-7.668 2.732-11.398l.423-1.701c.248-.964.56-2.164-.949-2.633a2.993 2.993 0 0 0-.889-.148c-1.004 0-1.682.663-1.962 1.917a370.17 370.17 0 0 1-1.619 6.812l-.676 2.783c-.688 2.855-.755 2.91-3.588 2.915-.68.001-1.362.008-2.04.015l-.142.001a206.3 206.3 0 0 1-2.36.017c-1.182 0-2.15-.019-3.046-.059a9.384 9.384 0 0 0-.33-.007m-25.383 20.36c-1.922 0-2.784 1.128-3.43 2.347-.753 1.411-.425 2.842.924 4.03.708.623 2.085 1.668 3.37 1.668.467 0 .886-.139 1.242-.413 1.341-1.035 2.856-1.701 4.321-2.345.772-.34 1.571-.691 2.34-1.095.636-.334.75-.658.735-.872-.014-.185-.136-.443-.639-.619-2.088-.734-4.233-1.41-6.125-2.007a505.59 505.59 0 0 1-2.025-.642 5.095 5.095 0 0 0-.713-.052m32.046-.291c-.219 0-.423.039-.609.115-3.89 1.609-7.955 2.941-11.886 4.229-2.29.75-4.885 1.599-7.342 2.482-.598.215-1.202.412-1.807.609-1.445.472-2.933.959-4.309 1.681-1.837.966-2.549 2.46-2.004 4.206.464 1.488 1.99 2.568 3.627 2.568a3.67 3.67 0 0 0 1.07-.159c7.466-2.278 15.315-4.937 24.701-8.364 1.732-.632 2.203-2.135 2.33-2.974.028-1.057-.502-2.239-1.414-3.174-.746-.764-1.627-1.219-2.357-1.219m-7.06 16.276c.425 0 .965-.224 1.521-.631a9.38 9.38 0 0 1 .284-.196c.572-.387 1.284-.867.913-1.8-.166-.42-.529-.642-1.049-.642-.532 0-1.16.228-1.62.395a6.916 6.916 0 0 1-.354.124l-.153.048c-.713.219-2.197.676-2.01 1.628.19.958 1.16 1.007 2.185 1.06l.282.014m-.35 3.023a7.354 7.354 0 0 1-1.646-.187c-.266-.061-.533-.113-.8-.167-.899-.175-1.782-.348-2.58-.783-.809-.442-2.41-1.063-2.882-1.244l-.022-.001c-.108 0-.41.089-2.275.652-1.104.333-2.39.722-3.28.982-1.122.328-2.34.633-3.647.633a8.04 8.04 0 0 1-1.422-.125c-3.076-.543-4.892-2.423-5.55-5.747-.316-1.59-1.179-2.161-2.377-2.529-3.932-1.206-5.905-4.379-5.027-8.084.862-3.628 3.285-5.709 6.65-5.709.534 0 1.094.054 1.665.161.265.05.494.074.692.074.416 0 .721-.106.932-.325.267-.277.373-.721.346-1.44a46.913 46.913 0 0 1-.014-2.089c.004-.398.007-.735.006-1.071.003-2.523.005-3.79-.686-4.467-.688-.675-1.98-.675-4.555-.676l-1.994.007c-.46 0-.92-.004-1.38-.015-2.735-.066-5.159-1.973-5.638-4.437-.587-3.004-1.339-6.003-2.067-8.903a281.716 281.716 0 0 1-1.27-5.204C2.464 8.378 4.277 5.245 7.02 4.599a4.61 4.61 0 0 1 1.051-.12c2.431 0 4.743 1.784 5.378 4.15a239.76 239.76 0 0 1 2.123 8.563c.44 1.894 1.8 2.155 3.203 2.155.287 0 .58-.01.873-.021.23-.009.461-.018.69-.021.518 0 1.051-.025 1.591-.052a33.501 33.501 0 0 1 1.632-.053c.9 0 1.613.076 2.243.239 1.415.366 2.536 1.363 3.62 2.327l.21.184c1.777 1.575 2.98 2.312 2.99 2.319l.052.03h.105c.066-.043 1.445-.939 2.992-2.267 2.195-1.882 4.318-2.725 6.88-2.733l.884-.002c1.664 0 3.302.014 4.973.032 1.775 0 2.253-.652 2.556-1.938a265.136 265.136 0 0 1 1.583-6.292l.588-2.267c.69-2.671 2.616-4.33 5.028-4.33.312 0 .631.029.948.086 1.595.285 2.978 1.158 3.796 2.394.714 1.081.936 2.33.642 3.613a222.592 222.592 0 0 0-.942 4.394c-.812 3.897-1.646 7.904-3.016 11.702-.75 2.082-2.234 3.087-4.665 3.162-.54.017-1.08.021-1.62.021l-1.377-.003c-1.33 0-2.878.021-4.397.264-1.11.178-1.708.503-1.682 1.709.038 1.875.04 3.953.002 6.541-.009.593.1.984.345 1.232.2.203.484.301.873.301.208 0 .448-.026.755-.083a7.686 7.686 0 0 1 1.375-.125c3.458 0 6.406 2.322 7.167 5.647.781 3.408-1.499 6.998-5.19 8.173-1.539.489-2.608 1.221-2.827 3.202-.33 3.001-3.12 5.265-6.489 5.265"/>
    </g>
</svg>
