<svg xmlns="http://www.w3.org/2000/svg" xmlns:xlink="http://www.w3.org/1999/xlink" >
    <defs>
        <path id="a" d="M0 .276h39.722v39.42H0z"/>
    </defs>
    <g fill="none" fill-rule="evenodd">
        <g transform="translate(0 .027)">
            <mask id="b" fill="#fff">
                <use xlink:href="#a"/>
            </mask>
            <path fill="#3B5998" d="M19.86 39.697C8.893 39.697 0 30.872 0 19.987 0 9.1 8.892.277 19.86.277c10.97 0 19.862 8.824 19.862 19.71 0 10.885-8.892 19.71-19.861 19.71" mask="url(#b)"/>
        </g>
        <path fill="#FEFEFE" d="M13.545 16.522h2.706v-2.435c0-1.074.03-2.73.872-3.756.888-1.087 2.106-1.826 4.202-1.826 3.414 0 4.852.45 4.852.45L25.5 12.67s-1.127-.303-2.18-.303c-1.053 0-1.995.35-1.995 1.324v2.832h4.316l-.301 3.627h-4.015v12.598H16.25V20.15h-2.706v-3.627z"/>
    </g>
</svg>
