<svg xmlns="http://www.w3.org/2000/svg" xmlns:xlink="http://www.w3.org/1999/xlink">
    <defs>
        <path id="a" d="M0 .276h39.721v39.42H0z"/>
    </defs>
    <g fill="none" fill-rule="evenodd">
        <g transform="translate(0 .027)">
            <mask id="b" fill="#fff">
                <use xlink:href="#a"/>
            </mask>
            <path fill="#2AA8DF" d="M19.86 39.697C8.893 39.697 0 30.872 0 19.987 0 9.1 8.892.276 19.86.276c10.97 0 19.861 8.824 19.861 19.71 0 10.885-8.892 19.71-19.86 19.71" mask="url(#b)"/>
        </g>
        <path fill="#FEFEFE" d="M31.235 13.012a9.382 9.382 0 0 1-2.68.73 4.648 4.648 0 0 0 2.052-2.563c-.901.53-1.9.916-2.963 1.124a4.677 4.677 0 0 0-3.408-1.463c-2.577 0-4.667 2.074-4.667 4.632 0 .364.042.716.12 1.055a13.279 13.279 0 0 1-9.62-4.84 4.62 4.62 0 0 0 1.444 6.185 4.675 4.675 0 0 1-2.113-.58v.059c0 2.244 1.61 4.116 3.744 4.541a4.725 4.725 0 0 1-2.108.08 4.668 4.668 0 0 0 4.36 3.217 9.408 9.408 0 0 1-5.797 1.983c-.377 0-.748-.023-1.113-.065a13.293 13.293 0 0 0 7.156 2.08c8.584 0 13.278-7.057 13.278-13.178 0-.2-.005-.4-.013-.6a9.47 9.47 0 0 0 2.328-2.397"/>
    </g>
</svg>
