<svg xmlns="http://www.w3.org/2000/svg" width="55" height="60" viewBox="0 0 55 60">
    <g fill="none" fill-rule="evenodd" stroke="#FFF" transform="translate(-1 2)">
        <ellipse cx="19.686" cy="40.342" stroke-width="2.7" rx="15.784" ry="15.658"/>
        <path stroke-width="3" d="M19.5 31v10.5h7"/>
        <path stroke-width="2.7" d="M36.51 0l7.215 4.225L32 10.985l8.118 4.226M46.677 14.62l5.914 3.79-10.202 5.045 6.676 3.832"/>
        <path stroke-width="2.52" d="M46.091 33.21l4.36 1.654-6.314 3.9 4.875 1.604"/>
        <path stroke-width="2.7" d="M7.77 20.108a7.757 7.757 0 0 1 10.308 3.751l.193.414-14.06 6.556-.193-.413A7.757 7.757 0 0 1 7.77 20.108zM32.23 20.108a7.757 7.757 0 0 0-10.308 3.751l-.193.414 14.06 6.556.193-.413a7.757 7.757 0 0 0-3.752-10.308zM35.47 40.79h-2.992M19.543 56v-2.684M19.543 27.368l.143-8.157M7.202 40.79H4.21"/>
    </g>
</svg>
