<?xml version="1.0" encoding="UTF-8"?>
<svg width="16px" height="14px" viewBox="0 0 16 14" version="1.1" xmlns="http://www.w3.org/2000/svg" xmlns:xlink="http://www.w3.org/1999/xlink">
    <!-- Generator: Sketch 49.3 (51167) - http://www.bohemiancoding.com/sketch -->
    <title>flaticon1526679511-svg</title>
    <desc>Created with Sketch.</desc>
    <defs></defs>
    <g id="Page-1" stroke="none" stroke-width="1" fill="none" fill-rule="evenodd">
        <g id="flaticon1526679511-svg" fill="#FFFFFF" fill-rule="nonzero">
            <path d="M15.7938438,11.7636109 L9.23090625,0.731737557 C8.97234375,0.297135747 8.5006875,0.0271447964 7.99996875,0.0271447964 C7.49925,0.0271447964 7.02759375,0.297135747 6.769,0.731769231 L0.20609375,11.7636109 C-0.061125,12.2128145 -0.06903125,12.7756018 0.1854375,13.2323439 C0.43996875,13.689086 0.91953125,13.9728235 1.43703125,13.9728235 L14.5629063,13.9728235 C15.0804063,13.9728235 15.56,13.689086 15.8145313,13.2323122 C16.069,12.7755385 16.0610938,12.2127511 15.7938438,11.7636109 Z M14.9074687,12.7131403 C14.8374062,12.8388552 14.705375,12.9169955 14.5629062,12.9169955 L1.43703125,12.9169955 C1.2945625,12.9169955 1.16253125,12.8388869 1.0925,12.7131719 C1.0224375,12.5874253 1.024625,12.4324751 1.09815625,12.3088507 L7.661125,1.27697738 C7.7323125,1.15734389 7.86215625,1.08300452 8,1.08300452 C8.1378125,1.08300452 8.26765625,1.15734389 8.33884375,1.27697738 L14.90175,12.3088507 C14.9753437,12.4325068 14.9775312,12.5874253 14.9074687,12.7131403 Z" id="Shape"></path>
            <path d="M8.0048125,4.3711991 C7.6085625,4.3711991 7.2993125,4.58671041 7.2993125,4.96876471 C7.2993125,6.13443891 7.43459375,7.80949774 7.43459375,8.97520362 C7.434625,9.27886425 7.69559375,9.40619457 8.00484375,9.40619457 C8.23678125,9.40619457 8.565375,9.27886425 8.565375,8.97520362 C8.565375,7.80952941 8.70065625,6.13447059 8.70065625,4.96876471 C8.70065625,4.58674208 8.38175,4.3711991 8.0048125,4.3711991 Z" id="Shape"></path>
            <path d="M8.01453125,10.0820905 C7.5893125,10.0820905 7.27034375,10.4249321 7.27034375,10.8363801 C7.27034375,11.238009 7.58928125,11.5906697 8.01453125,11.5906697 C8.41078125,11.5906697 8.7490625,11.238009 8.7490625,10.8363801 C8.7490625,10.4249321 8.41075,10.0820905 8.01453125,10.0820905 Z" id="Shape"></path>
        </g>
    </g>
</svg>