<?xml version="1.0" encoding="UTF-8"?>
<svg width="24px" height="20px" viewBox="0 0 24 20" version="1.1" xmlns="http://www.w3.org/2000/svg" xmlns:xlink="http://www.w3.org/1999/xlink">
    <!-- Generator: Sketch 55 (78076) - https://sketchapp.com -->
    <title>icon/ ! copy</title>
    <desc>Created with Sketch.</desc>
    <g id="Alchemy" stroke="none" stroke-width="1" fill="none" fill-rule="evenodd">
        <g id="icon/-unsupported" transform="translate(0.000000, -2.000000)">
            <g id="icon/-!-copy" transform="translate(1.000000, 2.000000)">
                <path d="M1.73444728,19.5 C1.47053339,19.5 1.2112909,19.4303699 0.982892878,19.2981394 C0.265950269,18.8830674 0.021235819,17.9653882 0.436307856,17.2484456 L9.70186057,1.24430909 C9.83317584,1.0174918 10.0216283,0.82903933 10.2484456,0.697724063 C10.9653882,0.282652026 11.8830674,0.527366476 12.2981394,1.24430909 L21.5636921,17.2484456 C21.6959226,17.4768436 21.7655527,17.7360861 21.7655527,18 C21.7655527,18.8284271 21.0939798,19.5 20.2655527,19.5 L1.73444728,19.5 Z M10.2973017,7.7 L10.4812098,12.5 L11.5187902,12.5 L11.7026983,7.7 L10.2973017,7.7 Z" id="!" stroke="#F65050"></path>
                <path d="M11,17.1454545 C11.8284271,17.1454545 12.5,16.4860921 12.5,15.6727273 C12.5,14.8593625 11.8284271,14.2 11,14.2 C10.1715729,14.2 9.5,14.8593625 9.5,15.6727273 C9.5,16.4860921 10.1715729,17.1454545 11,17.1454545 Z" id="Oval-path" fill="#F65050"></path>
            </g>
        </g>
    </g>
</svg>