<?xml version="1.0" encoding="UTF-8"?>
<svg width="15px" height="12px" viewBox="0 0 15 12" version="1.1" xmlns="http://www.w3.org/2000/svg" xmlns:xlink="http://www.w3.org/1999/xlink">
    <!-- Generator: Sketch 50.2 (55047) - http://www.bohemiancoding.com/sketch -->
    <title>Group Copy</title>
    <desc>Created with Sketch.</desc>
    <defs></defs>
    <g id="Symbols" stroke="none" stroke-width="1" fill="none" fill-rule="evenodd">
        <g id="DAO-Header" transform="translate(-608.000000, -55.000000)">
            <g id="Group-Copy" transform="translate(608.000000, 55.000000)">
                <polygon id="Triangle" fill="#F2AF5A" points="7.125 0 14.25 12 0 12"></polygon>
                <path d="M7.2295,4.50461538 C7.7235,4.50461538 7.9135,5.13230769 7.885,5.44615385 C7.847,5.87076923 7.562,7.49538462 7.4195,8.04923077 C7.4005,8.16923077 7.3055,8.37230769 7.1725,8.37230769 C7.125,8.37230769 7.0015,8.26153846 6.954,8.04 C6.859,7.56923077 6.574,6.11076923 6.517,5.49230769 C6.4695,4.81846154 6.897,4.50461538 7.2295,4.50461538 Z M7.182,8.86153846 C7.6,8.86153846 7.885,9.22153846 7.885,9.55384615 C7.885,9.91384615 7.5715,10.2646154 7.1725,10.2646154 C6.7925,10.2646154 6.479,9.96923077 6.479,9.55384615 C6.479,9.13846154 6.8495,8.86153846 7.182,8.86153846 Z" id="!" fill="#404040"></path>
            </g>
        </g>
    </g>
</svg>