<?xml version="1.0" encoding="UTF-8"?>
<svg width="12px" height="11px" viewBox="0 0 12 11" version="1.1" xmlns="http://www.w3.org/2000/svg" xmlns:xlink="http://www.w3.org/1999/xlink">
    <!-- Generator: Sketch 51.3 (57544) - http://www.bohemiancoding.com/sketch -->
    <title>Shape</title>
    <desc>Created with Sketch.</desc>
    <defs></defs>
    <g id="Alchemy" stroke="none" stroke-width="1" fill="none" fill-rule="evenodd">
        <g id="Proposal-boosted" transform="translate(-305.000000, -386.000000)" fill="#0076FF" fill-rule="nonzero">
            <g id="Proposal-boosted-W" transform="translate(-3.000000, 48.000000)">
                <g id="Proposal" transform="translate(304.000000, 132.000000)">
                    <g id="link" transform="translate(3.045741, 202.813333)">
                        <path d="M1.78369649,8.60343187 C1.78369649,7.57743187 2.68719649,6.74343187 3.79869649,6.74343187 L6.39869649,6.74343187 L6.39869649,5.60343187 L3.79869649,5.60343187 C2.00469649,5.60343187 0.548696492,6.94743187 0.548696492,8.60343187 C0.548696492,10.2594319 2.00469649,11.6034319 3.79869649,11.6034319 L6.39869649,11.6034319 L6.39869649,10.4634319 L3.79869649,10.4634319 C2.68719649,10.4634319 1.78369649,9.62943187 1.78369649,8.60343187 Z M4.44869649,9.20343187 L9.64869649,9.20343187 L9.64869649,8.00343187 L4.44869649,8.00343187 L4.44869649,9.20343187 Z M10.2986965,5.60343187 L7.69869649,5.60343187 L7.69869649,6.74343187 L10.2986965,6.74343187 C11.4101965,6.74343187 12.3136965,7.57743187 12.3136965,8.60343187 C12.3136965,9.62943187 11.4101965,10.4634319 10.2986965,10.4634319 L7.69869649,10.4634319 L7.69869649,11.6034319 L10.2986965,11.6034319 C12.0926965,11.6034319 13.5486965,10.2594319 13.5486965,8.60343187 C13.5486965,6.94743187 12.0926965,5.60343187 10.2986965,5.60343187 Z" id="Shape" transform="translate(7.048696, 8.603432) rotate(45.000000) translate(-7.048696, -8.603432) "></path>
                    </g>
                </g>
            </g>
        </g>
    </g>
</svg>