<?xml version="1.0" encoding="UTF-8"?>
<svg width="20px" height="20px" viewBox="0 0 20 20" version="1.1" xmlns="http://www.w3.org/2000/svg" xmlns:xlink="http://www.w3.org/1999/xlink">
    <!-- Generator: Sketch 48.2 (47327) - http://www.bohemiancoding.com/sketch -->
    <title>Shape</title>
    <desc>Created with Sketch.</desc>
    <defs></defs>
    <g id="User-profile-mini" stroke="none" stroke-width="1" fill="none" fill-rule="evenodd" transform="translate(-316.000000, -438.000000)">
        <g id="Group-20" transform="translate(173.000000, 341.000000)" fill="#FFFFFF" fill-rule="nonzero">
            <g id="Group-19" transform="translate(41.000000, 90.000000)">
                <path d="M121.687584,11.5981936 C121.47915,11.389956 121.226308,11.2857394 120.928825,11.2857394 L116.285698,11.2857394 C115.839394,11.2857394 115.36303,11.4345197 114.857229,11.7321584 L114.857229,8.0715619 C114.857229,7.77384501 114.753169,7.52069183 114.544735,7.31253237 C114.336301,7.10421655 114.08346,7 113.785663,7 L109.142927,7 C108.845287,7 108.51786,7.07439013 108.160762,7.2231313 C107.803626,7.37191157 107.520919,7.55055734 107.312485,7.75891225 L102.758915,12.3125031 C102.550559,12.5208189 102.371913,12.803603 102.223132,13.1606991 C102.07439,13.5179516 102,13.845143 102,14.142899 L102,21.642816 C102,21.940611 102.1041,22.1937251 102.312416,22.4018455 C102.520772,22.6102786 102.773809,22.7143388 103.071332,22.7143388 L109.142888,22.7143388 L109.142888,25.9287508 C109.142888,26.2262332 109.246948,26.4793473 109.455304,26.6875067 C109.663543,26.8959398 109.91658,27 110.214219,27 L120.928747,27 C121.22623,27 121.479345,26.8959398 121.687505,26.6875067 C121.895939,26.4793473 122,26.2262332 122,25.9287508 L122,12.3572622 C122.000078,12.0596235 121.896018,11.8065485 121.687584,11.5981936 Z M114.857229,13.6630182 L114.857229,16.9999805 L111.520176,16.9999805 L114.857229,13.6630182 Z M107.714263,9.37723967 L107.714263,12.7142019 L104.377288,12.7142019 L107.714263,9.37723967 Z M109.901842,16.5982034 C109.693486,16.8065583 109.51484,17.0893424 109.366059,17.4465167 C109.217317,17.8038473 109.142927,18.1309216 109.142927,18.4287166 L109.142927,21.2856026 L103.428664,21.2856026 L103.428664,14.142899 L108.071361,14.142899 C108.369079,14.142899 108.622038,14.0387607 108.830393,13.8304057 C109.038632,13.6220508 109.142888,13.3690931 109.142888,13.0715717 L109.142888,8.42865799 L113.428722,8.42865799 L113.428722,13.0715326 L109.901842,16.5982034 Z M120.571336,25.5715375 L110.571239,25.5715375 L110.571239,18.428443 L115.214288,18.428443 C115.511928,18.428443 115.764769,18.3243828 115.973047,18.1159497 C116.181324,17.9077902 116.285541,17.6547934 116.285541,17.3571938 L116.285541,12.714241 L120.571063,12.714241 L120.571063,25.5715375 L120.571336,25.5715375 Z" id="Shape"></path>
            </g>
        </g>
    </g>
</svg>