<?xml version="1.0" encoding="UTF-8"?>
<svg width="32px" height="32px" viewBox="0 0 32 32" version="1.1" xmlns="http://www.w3.org/2000/svg" xmlns:xlink="http://www.w3.org/1999/xlink">
    <!-- Generator: Sketch 50.2 (55047) - http://www.bohemiancoding.com/sketch -->
    <title>Group</title>
    <desc>Created with Sketch.</desc>
    <defs></defs>
    <g id="Page-1" stroke="none" stroke-width="1" fill="none" fill-rule="evenodd">
        <g id="User-dropdown" transform="translate(-724.000000, -79.000000)">
            <g id="Group-7" transform="translate(579.000000, 44.000000)">
                <g id="Group-5" transform="translate(17.000000, 31.000000)">
                    <g id="Group" transform="translate(128.000000, 4.000000)">
                        <rect id="Rectangle-15" fill="#FFFFFF" transform="translate(15.684932, 16.000000) rotate(-45.000000) translate(-15.684932, -16.000000) " x="4.68493151" y="5" width="22" height="22"></rect>
                        <path d="M19.1273449,8.44365081 L13.3333772,8.44365081 C13.0550644,8.44365081 12.8273538,8.67136133 12.8273538,8.94967419 L12.8273538,11.1424521 L10.6346057,11.1424521 C10.3562928,11.1424521 10.1285823,11.3701626 10.1285823,11.6484755 L10.1285823,21.9376274 C10.1285823,22.2159403 10.3562928,22.4436508 10.6346057,22.4436508 L19.1526758,22.4436508 C19.4309887,22.4436508 19.6586992,22.2159403 19.6586992,21.9376274 L19.6586992,19.6605222 L21.76712,19.6605222 C22.0454329,19.6605222 22.2731434,19.4328117 22.2731434,19.1544988 L22.2731434,11.6062969 C22.2731434,11.4713673 22.2225411,11.3448614 22.1297602,11.2520806 L19.4900148,8.59545783 C19.397234,8.49425315 19.2623043,8.44365081 19.1273449,8.44365081 Z M18.6466525,21.4315743 L11.1406291,21.4315743 L11.1406291,12.1544988 L12.8273836,12.1544988 L12.8273836,19.1544988 C12.8273836,19.4328117 13.0550941,19.6605222 13.333407,19.6605222 L18.6466525,19.6605222 L18.6466525,21.4315743 Z M13.8394006,18.6484457 L13.8394006,9.45569757 L18.2249266,9.45569757 L18.2249266,12.3231535 C18.2249266,12.6014663 18.4526371,12.8291768 18.73095,12.8291768 L21.2610669,12.8291768 L21.2610669,18.6484457 L13.8394006,18.6484457 Z M21.2610967,11.8171301 L19.2370031,11.8171301 L19.2370031,9.77618897 L21.2610967,11.8171301 Z" id="Shape" fill="#2A2A2A" fill-rule="nonzero"></path>
                    </g>
                </g>
            </g>
        </g>
    </g>
</svg>