<?xml version="1.0" encoding="UTF-8"?>
<svg width="16px" height="16px" viewBox="0 0 16 16" version="1.1" xmlns="http://www.w3.org/2000/svg" xmlns:xlink="http://www.w3.org/1999/xlink">
    <!-- Generator: Sketch 48.2 (47327) - http://www.bohemiancoding.com/sketch -->
    <title>Shape Copy 3</title>
    <desc>Created with Sketch.</desc>
    <defs></defs>
    <g id="Up/downvote" stroke="none" stroke-width="1" fill="none" fill-rule="evenodd" transform="translate(0.000000, -40.000000)">
        <g id="Group-15" fill="#FFC000" fill-rule="nonzero">
            <path d="M5.09116601,40.6667974 C5.09116601,40.4864892 5.16305197,40.330188 5.30706272,40.1978209 C5.45035699,40.0661835 5.621116,40 5.81814563,40 L10.1826504,40 C10.3790432,40 10.5495634,40.0658917 10.6937334,40.1978209 C10.8375849,40.3296772 10.9094709,40.4859784 10.9094709,40.6662866 L10.9094709,47.9999635 L15.2732592,47.9999635 C15.4856532,47.9999635 15.6595169,48.0623526 15.795726,48.1873498 C15.9319352,48.3124199 16,48.4722966 16,48.666542 C16,48.8332049 15.9247705,49.0000137 15.7733562,49.1666765 L8.52282509,55.8126137 C8.38661592,55.9376109 8.21251337,56 8.00019902,56 C7.78796428,56 7.61386173,55.937319 7.47741374,55.8126137 L0.204433167,49.1460261 C0.067985173,49.021029 -1.42108547e-16,48.8612253 0,48.6668339 C0,48.4863068 0.0718859616,48.3301515 0.215896709,48.1981493 C0.35974824,48.0661471 0.530268428,48.0002554 0.727218449,48.0002554 L5.09116601,48.0002554 L5.09116601,40.6667974 Z" id="Shape-Copy-3"></path>
        </g>
    </g>
</svg>