<?xml version="1.0" encoding="UTF-8"?>
<svg width="24px" height="19px" viewBox="0 0 24 19" version="1.1" xmlns="http://www.w3.org/2000/svg" xmlns:xlink="http://www.w3.org/1999/xlink">
    <!-- Generator: Sketch 50.2 (55047) - http://www.bohemiancoding.com/sketch -->
    <title>flaticon1527785729-svg</title>
    <desc>Created with Sketch.</desc>
    <defs></defs>
    <g id="Page-1" stroke="none" stroke-width="1" fill="none" fill-rule="evenodd">
        <g id="User-dropdown" transform="translate(-703.000000, -957.000000)" fill="#FFFFFF" fill-rule="nonzero">
            <g id="Group-3" transform="translate(681.000000, 937.000000)">
                <g id="flaticon1527785729-svg" transform="translate(22.000000, 20.000000)">
                    <path d="M23.9999531,2.18982161 C23.9999531,1.8201809 23.858625,1.47269095 23.6019844,1.21136935 L23.0682656,0.667721106 C22.811625,0.406351759 22.470375,0.262419598 22.1074219,0.262419598 C21.7444687,0.262419598 21.4032656,0.406351759 21.1465781,0.667721106 L18.6315938,3.22904523 L18.6315938,0.49948995 C18.6315938,0.230625628 18.4175156,0.0126030151 18.1535156,0.0126030151 L0.478078125,0.0126030151 C0.21403125,0.0125552764 0,0.230625628 0,0.49948995 L0,18.5005101 C0,18.7693744 0.21403125,18.987397 0.478078125,18.987397 L18.1534688,18.987397 C18.4174687,18.987397 18.6315469,18.7693744 18.6315469,18.5005101 L18.6313594,8.23067588 L23.6019844,3.16841709 C23.858625,2.90704774 23.9999531,2.55946231 23.9999531,2.18982161 Z M17.6753906,18.0135754 L0.95615625,18.0135754 L0.95615625,0.986424623 L17.6753906,0.986424623 L17.6753437,4.20286683 L8.92251562,13.1169698 C8.87001563,13.1704372 8.8305,13.2356482 8.80701563,13.307304 L7.91732813,16.0254975 C7.86004688,16.2004598 7.90476563,16.3933719 8.03282813,16.5237462 C8.12395312,16.6165503 8.24615625,16.6663417 8.37098438,16.6663417 C8.4215625,16.6663417 8.4725625,16.6581784 8.52210937,16.6413744 L11.191125,15.7353417 C11.2615313,15.7114246 11.3255156,15.6711809 11.3780156,15.6177136 L17.6753906,9.20430653 L17.6753906,18.0135754 Z M10.781625,14.8478794 L9.12675,15.4096206 L9.678375,13.7242538 L19.8297656,3.3858191 L20.9330156,4.50939698 L10.781625,14.8478794 Z M22.9258594,2.47978643 L21.6091406,3.82081407 L21.0575156,3.25902513 L20.5059375,2.69723618 L21.8227031,1.35620854 C21.8987813,1.27872864 21.9998438,1.23609799 22.1074219,1.23609799 C22.215,1.23609799 22.3160625,1.27872864 22.3921406,1.3561608 L22.9259063,1.89980905 C22.9259063,1.89985678 22.9259063,1.89985678 22.9259531,1.89985678 C23.0019844,1.97733668 23.0438438,2.08026131 23.0438438,2.18977387 C23.0438438,2.29938191 23.0019375,2.40235427 22.9258594,2.47978643 Z" id="Shape"></path>
                    <path d="M14.9121094,3.05570603 L14.4562969,3.05570603 C14.1922969,3.05570603 13.9782188,3.27372864 13.9782188,3.54259296 C13.9782188,3.81145729 14.19225,4.0294799 14.4562969,4.0294799 L14.9121094,4.0294799 C15.1761094,4.0294799 15.3901875,3.81145729 15.3901875,3.54259296 C15.3902344,3.27377638 15.1761094,3.05570603 14.9121094,3.05570603 Z" id="Shape"></path>
                    <path d="M12.3798281,3.05570603 L3.66876563,3.05570603 C3.40471875,3.05570603 3.1906875,3.27372864 3.1906875,3.54259296 C3.1906875,3.81145729 3.40471875,4.0294799 3.66876563,4.0294799 L12.379875,4.0294799 C12.643875,4.0294799 12.8579531,3.81145729 12.8579531,3.54259296 C12.8579062,3.27377638 12.6438281,3.05570603 12.3798281,3.05570603 Z" id="Shape"></path>
                    <path d="M11.9240156,5.89257789 L3.66876563,5.89257789 C3.40471875,5.89257789 3.1906875,6.1106005 3.1906875,6.37946482 C3.1906875,6.64832915 3.40471875,6.86635176 3.66876563,6.86635176 L11.9240625,6.86635176 C12.1880625,6.86635176 12.4021406,6.64832915 12.4021406,6.37946482 C12.4021406,6.1106005 12.1880156,5.89257789 11.9240156,5.89257789 Z" id="Shape"></path>
                    <path d="M8.93592188,8.72944975 L3.66876563,8.72944975 C3.40471875,8.72944975 3.1906875,8.94747236 3.1906875,9.21633668 C3.1906875,9.48520101 3.40471875,9.70322362 3.66876563,9.70322362 L8.93596875,9.70322362 C9.20001563,9.70322362 9.41404688,9.48520101 9.41404688,9.21633668 C9.41404688,8.94747236 9.19996875,8.72944975 8.93592188,8.72944975 Z" id="Shape"></path>
                    <path d="M6.65690625,11.5146683 L3.66876563,11.5146683 C3.40471875,11.5146683 3.1906875,11.732691 3.1906875,12.0015553 C3.1906875,12.2704196 3.40471875,12.4884422 3.66876563,12.4884422 L6.65685938,12.4884422 C6.92090625,12.4884422 7.1349375,12.2704196 7.1349375,12.0015553 C7.1349375,11.732691 6.92095313,11.5146683 6.65690625,11.5146683 Z" id="Shape"></path>
                </g>
            </g>
        </g>
    </g>
</svg>