<?xml version="1.0" encoding="UTF-8"?>
<svg version="1.1" xmlns="http://www.w3.org/2000/svg" width="206.611" height="206.611" viewBox="638.932 206.758 226.611 216.611">
<g  stroke="#ff0000" fill="#ff0000">
<path d="M772.811,400.086h-69.3l24.006-24.006l0,0l0.905-0.906l0,0c0.906,0.906,2.265,0.906,2.718,0.453 c0.906-0.905,0.453-1.812-0.453-2.718l-49.823-50.729c-0.905-0.906-2.265-0.906-2.718-0.453c-0.905,0.906-0.453,1.812,0.453,2.718 l0,0l-1.358,1.358l0,0l-24.912,24.912c-4.529,4.529-4.529,11.776,0,16.306l33.518,33.518c1.359,1.358,3.171,2.265,5.436,3.17 c0.452,0.453,0.905,0.453,1.358,0.453h80.624c1.358,0,2.265-0.905,2.265-2.265C775.529,400.539,774.169,400.086,772.811,400.086z M655.046,364.304c-2.718-2.718-2.718-7.247,0-9.965l22.194-22.194l43.935,43.936l-22.193,22.194 c-1.359,1.358-2.718,1.812-4.53,1.812h-1.358c-1.812,0-3.171-0.906-4.529-1.812L655.046,364.304z" />
<path d="M789.117,400.086h-8.153c-1.358,0-2.265,0.905-2.265,2.265c0,1.358,0.906,2.265,2.265,2.265h8.153 c1.358,0,2.265-0.906,2.265-2.265C791.381,400.991,790.475,400.086,789.117,400.086z" />
<circle cx="797.27" cy="402.351" r="2.265" />
<path d="M854.792,245.181c-0.905-0.906-2.265-0.906-3.17,0l-79.265,79.717L761.94,314.48l77-77.906 c0.453-0.453,0.453-1.812,0-2.265c-0.453-0.453-1.812-0.453-2.265,0l-77.453,77.453l-18.117-18.118l74.282-74.282 c0.453-0.453,0.453-1.812,0-2.265s-1.812-0.453-2.265,0l-74.282,74.735l-10.871-10.87l58.883-58.429 c0.905-0.906,0.905-2.265,0-3.171c-0.906-0.906-2.265-0.906-3.171,0l-58.43,58.429l-1.812,1.812l50.276,50.276l1.813-1.812 l79.717-79.717C855.699,247.445,855.699,246.086,854.792,245.181z" />
<path d="M744.729,358.415l12.682-12.682l0,0c0.905,0.905,2.265,0.905,2.718,0.452c0.905-0.905,0.453-1.812-0.453-2.717 l-50.276-50.276c-0.905-0.906-2.265-0.906-2.718-0.453c-0.905,0.905-0.453,1.812,0.453,2.718l0,0l-12.683,12.682L744.729,358.415z M743.37,342.109c0.906-0.905,2.265-0.905,3.623,0c0.906,0.906,0.906,2.265,0,3.624c-0.905,0.905-2.264,0.905-3.623,0 C742.464,344.827,742.464,343.016,743.37,342.109z M725.251,324.445c0.906-0.906,2.266-0.906,3.624,0 c0.906,0.905,0.906,2.265,0,3.623c-0.906,0.906-2.265,0.906-3.624,0C724.346,326.71,724.346,325.351,725.251,324.445z M707.587,306.327c0.906-0.905,2.265-0.905,3.171,0c0.905,0.906,0.905,2.265,0,3.171c-0.906,0.906-2.265,0.906-3.171,0 C706.681,309.045,706.681,307.233,707.587,306.327z" />
<path d="M732.046,371.551l3.17-3.171l0,0c0.906,0.906,2.265,0.906,2.718,0.453c0.906-0.906,0.453-1.812-0.453-2.718 l-50.275-50.729c-0.906-0.905-2.265-0.905-2.718-0.452c-0.453,0.452-0.453,1.812,0.453,2.717l0,0l-3.171,3.171L732.046,371.551z" />
<path d="M738.387,364.757l3.171-3.171l0,0c0.906,0.906,2.265,0.906,2.718,0.453c0.905-0.906,0.453-1.812-0.453-2.718 l-50.276-50.276c-0.906-0.906-2.265-0.906-2.718-0.453c-0.906,0.906-0.453,1.813,0.453,2.718l0,0l-3.171,3.171L738.387,364.757z" />
<path d="M760.582,342.563l3.17-3.171l0,0c0.906,0.906,2.266,0.906,2.718,0.453c0.906-0.905,0.453-1.812-0.452-2.718 l-49.824-50.276c-0.905-0.905-2.265-0.905-2.718-0.452c-0.905,0.905-0.452,1.812,0.453,2.717l0,0l-3.17,3.171L760.582,342.563z" />
<path d="M766.922,336.222l3.171-3.171l0,0c0.906,0.906,2.265,0.906,2.718,0.453c0.905-0.906,0.453-1.812-0.453-2.718 l-49.823-50.276c-0.906-0.906-2.265-0.906-2.718-0.453c-0.906,0.906-0.453,1.813,0.453,2.718l0,0l-3.171,3.171L766.922,336.222z" />
<path d="M659.576,361.133c-0.906-0.905-0.906-2.718,0-3.623l5.889-5.889c0.452-0.453,0.452-1.358,0-1.812 c-0.453-0.453-1.359-0.453-1.813,0l-5.888,5.889c-1.812,1.812-1.812,4.981,0,6.794l6.341,6.341c0.453,0.453,1.359,0.453,1.812,0 c0.453-0.453,0.453-1.358,0-1.812L659.576,361.133z" />
</g>
</svg>
