<?xml version="1.0" encoding="UTF-8"?>
<svg width="20px" height="19px" viewBox="0 0 20 19" version="1.1" xmlns="http://www.w3.org/2000/svg" xmlns:xlink="http://www.w3.org/1999/xlink">
    <!-- Generator: Sketch 49 (51002) - http://www.bohemiancoding.com/sketch -->
    <title>flaticon1520964877-svg</title>
    <desc>Created with Sketch.</desc>
    <defs></defs>
    <g id="MVP" stroke="none" stroke-width="1" fill="none" fill-rule="evenodd">
        <g id="User-profile-mini" transform="translate(-1188.000000, -1951.000000)" fill="#FFFFFF" fill-rule="nonzero">
            <g id="flaticon1520964877-svg" transform="translate(1188.000000, 1951.000000)">
                <path d="M9.98870637,12.8698973 C9.4301848,12.8698973 8.96201232,13.3380698 8.96201232,13.8965914 C8.96201232,14.4551129 9.4301848,14.9232854 9.98870637,14.9232854 C10.526694,14.9232854 11.0154004,14.4551129 10.9907598,13.921232 C11.0154004,13.333963 10.5513347,12.8698973 9.98870637,12.8698973 Z" id="Shape"></path>
                <path d="M19.4917864,16.508501 C20.1365503,15.3955647 20.1406571,14.069076 19.5,12.9602464 L13.0687885,1.8226694 C12.4322382,0.701519507 11.2823409,0.0362217659 9.99281314,0.0362217659 C8.70328542,0.0362217659 7.55338809,0.705626283 6.91683778,1.81856263 L0.477412731,12.96846 C-0.163244353,14.0896099 -0.159137577,15.4243121 0.48973306,16.5372485 C1.13039014,17.6378645 2.2761807,18.2990554 3.55749487,18.2990554 L16.4034908,18.2990554 C17.6889117,18.2990554 18.8429158,17.6296509 19.4917864,16.508501 Z M18.0954825,15.7035729 C17.738193,16.3195893 17.1057495,16.6850924 16.399384,16.6850924 L3.55338809,16.6850924 C2.85523614,16.6850924 2.22689938,16.3278029 1.87782341,15.7241068 C1.52464066,15.1121971 1.52053388,14.381191 1.87371663,13.7651745 L8.31314168,2.61938398 C8.66221766,2.00747433 9.28644764,1.64607803 9.99281314,1.64607803 C10.6950719,1.64607803 11.3234086,2.01158111 11.6724846,2.62349076 L18.1078029,13.7692813 C18.4527721,14.3688706 18.4486653,15.0916632 18.0954825,15.7035729 Z" id="Shape"></path>
                <path d="M9.73408624,5.66250513 C9.24537988,5.80213552 8.94147844,6.24566735 8.94147844,6.78365503 C8.9661191,7.10809035 8.98665298,7.43663244 9.01129363,7.76106776 C9.08110883,8.99720739 9.15092402,10.2087064 9.22073922,11.444846 C9.24537988,11.8637372 9.5698152,12.1676386 9.98870637,12.1676386 C10.4075975,12.1676386 10.7361396,11.8432033 10.7566735,11.4202053 C10.7566735,11.1655852 10.7566735,10.931499 10.7813142,10.6727721 C10.8264887,9.88016427 10.87577,9.08755647 10.9209446,8.29494867 C10.9455852,7.78160164 10.9907598,7.26825462 11.0154004,6.7549076 C11.0154004,6.57010267 10.9907598,6.40583162 10.9209446,6.24156057 C10.711499,5.78160164 10.2227926,5.5475154 9.73408624,5.66250513 Z" id="Shape"></path>
            </g>
        </g>
    </g>
</svg>