<?xml version="1.0" encoding="UTF-8" standalone="no"?>
<svg
   xmlns:dc="http://purl.org/dc/elements/1.1/"
   xmlns:cc="http://creativecommons.org/ns#"
   xmlns:rdf="http://www.w3.org/1999/02/22-rdf-syntax-ns#"
   xmlns:svg="http://www.w3.org/2000/svg"
   xmlns="http://www.w3.org/2000/svg"
   id="svg9"
   xml:space="preserve"
   style="enable-background:new 0 0 612 612;"
   viewBox="0 0 612 612"
   y="0px"
   x="0px"
   version="1.1"><metadata
   id="metadata15"><rdf:RDF><cc:Work
       rdf:about=""><dc:format>image/svg+xml</dc:format><dc:type
         rdf:resource="http://purl.org/dc/dcmitype/StillImage" /><dc:title></dc:title></cc:Work></rdf:RDF></metadata><defs
   id="defs13" />
<g
   transform="matrix(1,0,0,1.1452784,0,-41.861985)"
   id="g7">
	<g
   id="_x36__30_">
		<g
   id="g4">
			<path
   style="fill:#ffffff"
   id="path2"
   d="m 331.685,425.378 c -7.478,7.479 -7.478,19.584 0,27.043 7.479,7.478 19.584,7.478 27.043,0 L 490.671,320.459 c 3.979,-3.979 5.681,-9.276 5.412,-14.479 0.269,-5.221 -1.434,-10.499 -5.412,-14.477 L 358.728,159.56 c -7.459,-7.478 -19.584,-7.478 -27.043,0 -7.478,7.478 -7.478,19.584 0,27.042 L 431.957,286.874 H 19.125 C 8.568,286.875 0,295.443 0,306 c 0,10.557 8.568,19.125 19.125,19.125 H 431.957 Z M 535.5,38.25 H 153 c -42.247,0 -76.5,34.253 -76.5,76.5 v 76.5 h 38.25 v -76.5 C 114.75,93.636 131.867,76.5 153,76.5 h 382.5 c 21.133,0 38.25,17.136 38.25,38.25 v 382.5 c 0,21.114 -17.117,38.25 -38.25,38.25 H 153 c -21.133,0 -38.25,-17.117 -38.25,-38.25 v -76.5 H 76.5 v 76.5 c 0,42.247 34.253,76.5 76.5,76.5 h 382.5 c 42.247,0 76.5,-34.253 76.5,-76.5 v -382.5 c 0,-42.247 -34.253,-76.5 -76.5,-76.5 z" />
		</g>
	</g>
</g>
</svg>
