<?xml version="1.0" encoding="UTF-8"?>
<svg width="16px" height="16px" viewBox="0 0 16 16" version="1.1" xmlns="http://www.w3.org/2000/svg" xmlns:xlink="http://www.w3.org/1999/xlink">
    <!-- Generator: Sketch 51.3 (57544) - http://www.bohemiancoding.com/sketch -->
    <title>flaticon1554165389-svg</title>
    <desc>Created with Sketch.</desc>
    <defs></defs>
    <g id="Page-1" stroke="none" stroke-width="1" fill="none" fill-rule="evenodd">
        <g id="flaticon1554165389-svg" fill="#000000" fill-rule="nonzero">
            <path d="M15.0096901,0 L9.50969014,0 C8.96602817,0 8.52377465,0.440757895 8.52377465,0.98245614 C8.52377465,1.52415439 8.96602817,1.96491228 9.50969014,1.96491228 L12.6295211,1.96491228 L7.42529577,7.15082105 C7.23898592,7.33636491 7.1364507,7.58304561 7.1364507,7.84555789 C7.1364507,8.10807018 7.23892958,8.35469474 7.4251831,8.54007018 C7.61143662,8.7258386 7.85892958,8.82807018 8.1223662,8.82807018 C8.38569014,8.82807018 8.63329577,8.72589474 8.81960563,8.5402386 L14.0237746,3.35427368 L14.0237746,6.46315789 C14.0237746,7.00485614 14.4660845,7.44561404 15.0096901,7.44561404 C15.5532958,7.44561404 15.9956056,7.00485614 15.9956056,6.46315789 L15.9956056,0.98245614 C15.9956056,0.440757895 15.5532958,0 15.0096901,0 Z" id="Shape"></path>
            <path d="M11.331662,14.2552702 L1.69014085,14.2552702 L1.69014085,4.64757895 L8.94146479,4.64757895 L10.6316056,2.96336842 L0.845070423,2.96336842 C0.378366197,2.96336842 0,3.34040702 0,3.80547368 L0,15.0973754 C0,15.5624421 0.378366197,15.9394807 0.845070423,15.9394807 L12.1767324,15.9394807 C12.6434366,15.9394807 13.0218028,15.5624421 13.0218028,15.0973754 L13.0218028,5.34517895 L11.331662,7.02938947 L11.331662,14.2552702 Z" id="Shape"></path>
        </g>
    </g>
</svg>