<svg xmlns="http://www.w3.org/2000/svg" width="13" height="12" viewBox="0 0 13 12">
    <g fill="none" fill-rule="evenodd">
        <path fill="#9AA9B5" fill-rule="nonzero" d="M6.512.21A5.788 5.788 0 0 0 .727 6a5.788 5.788 0 0 0 5.785 5.79A5.794 5.794 0 0 0 12.308 6 5.794 5.794 0 0 0 6.512.21zm.006 10.422A4.631 4.631 0 0 1 1.885 6a4.631 4.631 0 0 1 4.633-4.632A4.631 4.631 0 0 1 11.15 6a4.631 4.631 0 0 1-4.632 4.632z"/>
        <path stroke="#9AA9B5" d="M6.518 2.687v3.801h2.597"/>
    </g>
</svg>
