<svg viewBox="0 0 96 96" xmlns="http://www.w3.org/2000/svg" xmlns:xlink="http://www.w3.org/1999/xlink" id="Icons_MagnifyingGlass" overflow="hidden"><path d="M85.5 75.6 73 63.1C71.3 61.4 69 60.8 66.8 61.2L62.4 56.8C66.3 51.8 68.6 45.4 68.6 38.6 68.6 22.1 55.1 8.6 38.6 8.6 22.1 8.6 8.6 22.1 8.6 38.6 8.6 55.1 22.1 68.6 38.6 68.6 45.4 68.6 51.7 66.3 56.8 62.4L61.2 66.8C60.8 69 61.4 71.3 63.1 73L75.6 85.5C77 86.9 78.8 87.6 80.6 87.6 82.4 87.6 84.2 86.9 85.6 85.5 88.2 82.7 88.2 78.3 85.5 75.6ZM38.5 62.5C25.3 62.5 14.5 51.7 14.5 38.5 14.5 25.3 25.3 14.5 38.5 14.5 51.7 14.5 62.5 25.3 62.5 38.5 62.5 51.7 51.7 62.5 38.5 62.5Z"/></svg>