<?xml version="1.0" encoding="UTF-8"?>
<svg width="24px" height="16px" viewBox="0 0 24 16" version="1.1" xmlns="http://www.w3.org/2000/svg" xmlns:xlink="http://www.w3.org/1999/xlink">
    <!-- Generator: Sketch 50.2 (55047) - http://www.bohemiancoding.com/sketch -->
    <title>Shape</title>
    <desc>Created with Sketch.</desc>
    <defs></defs>
    <g id="Page-1" stroke="none" stroke-width="1" fill="none" fill-rule="evenodd">
        <g id="Create-proposal" transform="translate(-396.000000, -939.000000)" fill="#229F6E" fill-rule="nonzero">
            <g id="Group-2" transform="translate(252.000000, 446.000000)">
                <g id="flaticon1527872373-svg" transform="translate(144.000000, 493.000000)">
                    <path d="M23.5248338,0.817322946 C23.5263656,0.80813242 23.5290461,0.798941894 23.529812,0.789751368 C23.5324926,0.761413913 23.5294291,0.732693519 23.5259826,0.703973126 C23.5252168,0.696697293 23.5263656,0.689804398 23.5252168,0.682528565 C23.5183239,0.644617646 23.5056869,0.607472603 23.4869229,0.571859315 C23.4838594,0.565732298 23.4796471,0.559988219 23.4762006,0.553861202 C23.4754347,0.553095325 23.4754347,0.551946509 23.4750518,0.550797693 C23.4746689,0.550031816 23.4735201,0.549648877 23.4731371,0.548500062 C23.4704565,0.544287737 23.4681589,0.539692474 23.4654783,0.535863088 C23.4417362,0.501015677 23.4130158,0.472295284 23.3808489,0.447787215 C23.3735731,0.442426074 23.3651484,0.439362566 23.3574897,0.434384364 C23.3291522,0.415620374 23.299283,0.40030283 23.2671162,0.389963489 C23.2529474,0.385368226 23.2387787,0.383070594 23.224227,0.380390024 C23.1962725,0.374645945 23.168318,0.371965375 23.1392147,0.372731252 C23.1238971,0.373114191 23.1093455,0.373880068 23.0940279,0.3761777 C23.0840715,0.377709454 23.0744981,0.3761777 23.0645416,0.378475331 L0.83648872,4.97220656 C0.678335086,5.00513928 0.557326494,5.1334237 0.534733118,5.29349203 C0.512139741,5.45356036 0.592173905,5.61056518 0.735009996,5.68600408 L7.10404449,9.04552426 L8.22107633,15.2441511 C8.22031046,15.2487463 8.22145927,15.2537245 8.22107633,15.2583198 C8.21724695,15.2889549 8.21686401,15.3188241 8.2206934,15.3490763 C8.22260809,15.3643938 8.22452278,15.3789455 8.22835217,15.3938801 C8.23715976,15.4302592 8.25132848,15.4643408 8.27047541,15.4965076 C8.2743048,15.5026346 8.2743048,15.5099105 8.27851712,15.5160375 C8.27966594,15.5179522 8.28158063,15.5194839 8.28311238,15.5210157 C8.28809059,15.5282915 8.29498348,15.5340356 8.30072756,15.5413114 C8.31872567,15.5635219 8.33748966,15.5838176 8.35893422,15.6010498 C8.36238067,15.6037304 8.3646783,15.6079427 8.36850769,15.6106233 C8.37425177,15.6148356 8.38076172,15.6159844 8.3865058,15.6198138 C8.40986506,15.6351314 8.43399019,15.6477683 8.45964707,15.6577248 C8.46998641,15.6615541 8.47955988,15.6661494 8.49028216,15.6692129 C8.52474663,15.6791693 8.56035992,15.6860622 8.59635614,15.6860622 C8.59673908,15.6860622 8.59712202,15.6860622 8.59750496,15.6860622 C8.59750496,15.6860622 8.59750496,15.6860622 8.59750496,15.6860622 C8.59903671,15.6860622 8.60056847,15.6852963 8.60210022,15.6852963 C8.60861018,15.6856793 8.61512014,15.6860622 8.62163009,15.6860622 C8.72770408,15.6860622 8.82343872,15.6385778 8.89428236,15.5654366 L13.1368589,12.7370522 L17.5789465,15.6244091 C17.6417484,15.6650006 17.7145067,15.6860622 17.787648,15.6860622 C17.8278565,15.6860622 17.868831,15.6795523 17.9082736,15.6665323 C18.01856,15.6297702 18.1066358,15.5447579 18.1468444,15.4352374 L23.5064528,0.887783645 C23.511431,0.874763733 23.5156433,0.861360883 23.5190897,0.847575094 C23.5206215,0.841831015 23.5210044,0.836086937 23.5221533,0.830725796 C23.5233021,0.826513472 23.5240679,0.821918209 23.5248338,0.817322946 Z M19.0896392,3.26161991 L9.90179377,10.0170394 C9.88685917,10.0281447 9.87498807,10.0419304 9.86196816,10.0549504 C9.85698996,10.0595456 9.85201176,10.063375 9.84779943,10.0683532 C9.83975772,10.0771608 9.83248189,10.0859684 9.82520605,10.0955418 C9.81831316,10.1047324 9.81295202,10.1143058 9.806825,10.1238793 C9.79265627,10.1468556 9.78078518,10.1705978 9.77159465,10.1958718 C9.76967996,10.20085 9.76661645,10.2046793 9.7650847,10.2096575 C9.76470176,10.2111893 9.76317,10.2119552 9.76278707,10.2134869 L8.70970597,13.635809 L7.8752828,9.00569864 L19.0896392,3.26161991 Z M9.30326077,14.3725829 L10.3471513,10.9246039 L11.9723427,11.9811314 L12.4372301,12.28327 L10.8579914,13.3359681 L9.30326077,14.3725829 Z M20.4605593,1.69884756 L7.45098685,8.36236183 L2.0362353,5.50640588 L20.4605593,1.69884756 Z M17.594264,14.721057 L11.6950952,10.8870759 L10.8016994,10.3061581 L22.3488294,1.81564383 L17.594264,14.721057 Z" id="Shape"></path>
                </g>
            </g>
        </g>
    </g>
</svg>