<?xml version="1.0" encoding="UTF-8"?>
<svg width="22px" height="20px" viewBox="0 0 22 20" version="1.1" xmlns="http://www.w3.org/2000/svg" xmlns:xlink="http://www.w3.org/1999/xlink">
    <!-- Generator: Sketch 49 (51002) - http://www.bohemiancoding.com/sketch -->
    <title>flaticon1520964961-svg</title>
    <desc>Created with Sketch.</desc>
    <defs></defs>
    <g id="MVP" stroke="none" stroke-width="1" fill="none" fill-rule="evenodd">
        <g id="User-profile-mini" transform="translate(-1058.000000, -2002.000000)" fill="#FFFFFF" fill-rule="nonzero">
            <g id="flaticon1520964961-svg" transform="translate(1058.500000, 2002.000000)">
                <path d="M19.1551281,8.30892851 C18.6884919,8.30892851 18.3102563,8.68720498 18.3102563,9.15380043 L18.3102563,10.0047591 C18.3089899,12.2244985 17.443366,14.3109016 15.8728651,15.8795643 C14.3035081,17.4470832 12.2180856,18.3101745 10.0001438,18.3101745 C9.99850978,18.3101745 9.99687575,18.3101745 9.99524173,18.3101745 C5.41294961,18.30756 1.68713092,14.5775334 1.68974535,9.99520006 C1.69101172,7.77550149 2.55663567,5.68909841 4.12717737,4.12035401 C5.69653439,2.55283513 7.78199774,1.68974385 9.9998987,1.68974385 C10.0015327,1.68974385 10.0031667,1.68974385 10.0048008,1.68974385 C11.1760688,1.69039746 12.3124505,1.93247806 13.3823274,2.4091636 C13.8086441,2.59911885 14.3079608,2.40748873 14.4979161,1.98129451 C14.6877896,1.5551003 14.496282,1.05566097 14.070047,0.865705725 C12.7825999,0.292040875 11.4152082,0.000776161229 10.0057403,0 C10.0036161,0 10.0019821,0 9.99985785,0 C7.33112981,0 4.8213514,1.03874883 2.93299214,2.92490232 C1.04316225,4.81252643 0.00155396963,7.3231629 1.6473003e-06,9.99430134 C-0.00150982444,12.6653581 1.03715722,15.1771792 2.92486287,17.0670093 C4.81256853,18.9568393 7.32316394,19.9984477 9.99426132,20 C9.9963447,20 9.99801957,20 10.0001438,20 C12.6688718,20 15.1786502,18.961292 17.0670095,17.0750977 C18.9568394,15.1874327 19.9984477,12.6767963 20,10.0052493 L20,9.15384128 C20,8.68720498 19.6217644,8.30892851 19.1551281,8.30892851 Z" id="Shape"></path>
                <path d="M20.6497103,1.1447313 C20.3174888,0.816924774 19.7788681,0.816924774 19.4466466,1.1447313 L9.9082258,10.5575194 L7.7443235,8.42210913 C7.41214317,8.09426202 6.87348126,8.09426202 6.54130093,8.42210913 C6.20907947,8.74995624 6.20907947,9.28148501 6.54130093,9.60933213 L9.30675565,12.3383742 C9.47284581,12.502318 9.69059751,12.5842697 9.90830807,12.5842697 C10.1260186,12.5842697 10.3437292,12.502318 10.5098605,12.3383742 L20.6497103,2.33195429 C20.9819318,2.00410718 20.9819318,1.47257841 20.6497103,1.1447313 Z" id="Shape"></path>
            </g>
        </g>
    </g>
</svg>