<?xml version="1.0" encoding="UTF-8"?>
<svg width="12px" height="10px" viewBox="0 0 12 10" version="1.1" xmlns="http://www.w3.org/2000/svg" xmlns:xlink="http://www.w3.org/1999/xlink">
    <!-- Generator: Sketch 50.2 (55047) - http://www.bohemiancoding.com/sketch -->
    <title>Shape</title>
    <desc>Created with Sketch.</desc>
    <defs></defs>
    <g id="Symbols" stroke="none" stroke-width="1" fill="none" fill-rule="evenodd" opacity="0.300000012">
        <g id="Proposal-Object-Copy-8" transform="translate(-264.000000, -63.000000)" fill="#1E201D" fill-rule="nonzero">
            <g id="Group-2" transform="translate(51.000000, 60.000000)">
                <g id="flaticon1526943485-svg" transform="translate(213.000000, 3.000000)">
                    <path d="M8.08066053,0.150392918 C7.91718006,-0.0501309728 7.64509368,-0.0501309728 7.47589711,0.150392918 C7.31241664,0.344142354 7.31241664,0.666606449 7.47589711,0.859904254 L10.5423944,4.49417397 L0.423372499,4.49417397 C0.187488091,4.4946256 0,4.71682775 0,4.99638696 C0,5.27594617 0.187488091,5.5053744 0.423372499,5.5053744 L10.5423944,5.5053744 L7.47589711,9.13286966 C7.31241664,9.33339355 7.31241664,9.65630928 7.47589711,9.84960708 C7.64509368,10.050131 7.91756113,10.050131 8.08066053,9.84960708 L11.8731026,5.35498148 C12.0422991,5.16123205 12.0422991,4.83876795 11.8731026,4.64547015 L8.08066053,0.150392918 Z" id="Shape" opacity="0.5"></path>
                </g>
            </g>
        </g>
    </g>
</svg>