<?xml version="1.0" encoding="UTF-8"?>
<svg width="12px" height="10px" viewBox="0 0 12 10" version="1.1" xmlns="http://www.w3.org/2000/svg" xmlns:xlink="http://www.w3.org/1999/xlink">
    <!-- Generator: Sketch 48.2 (47327) - http://www.bohemiancoding.com/sketch -->
    <title>Shape</title>
    <desc>Created with Sketch.</desc>
    <defs></defs>
    <g id="MVP-Proposal-creation-Copy" stroke="none" stroke-width="1" fill="none" fill-rule="evenodd" transform="translate(-1168.000000, -777.000000)" opacity="0.5">
        <g id="Group-3" transform="translate(931.000000, 114.000000)" fill="#00D3A7" fill-rule="nonzero">
            <g id="Group" transform="translate(48.000000, 656.000000)">
                <path d="M189.656,12.6728665 L198.765333,12.6728665 L195.661333,15.856674 C195.405333,16.119256 195.405333,16.5404814 195.661333,16.8030635 C195.789333,16.9343545 195.954667,17 196.125333,17 C196.296,17 196.461333,16.9343545 196.589333,16.8030635 L200.808,12.47593 C200.930667,12.3501094 201,12.1805252 201,12 C201,11.8249453 200.930667,11.6498906 200.808,11.52407 L196.589333,7.19693654 C196.333333,6.93435449 195.922667,6.93435449 195.666667,7.19693654 C195.410667,7.4595186 195.410667,7.88074398 195.666667,8.14332604 L198.770667,11.3271335 L189.656,11.3271335 C189.293333,11.3271335 189,11.6280088 189,12 C189,12.3719912 189.293333,12.6728665 189.656,12.6728665 Z" id="Shape"></path>
            </g>
        </g>
    </g>
</svg>