<?xml version="1.0" encoding="UTF-8"?>
<svg width="15px" height="15px" viewBox="0 0 15 15" version="1.1" xmlns="http://www.w3.org/2000/svg" xmlns:xlink="http://www.w3.org/1999/xlink">
    <!-- Generator: Sketch 51.3 (57544) - http://www.bohemiancoding.com/sketch -->
    <title>vote/ v small copy</title>
    <desc>Created with Sketch.</desc>
    <defs></defs>
    <g id="vote/-v-small-copy" stroke="none" stroke-width="1" fill="none" fill-rule="evenodd">
        <polygon id="v" stroke="#9AA9B5" stroke-width="0.2" fill="#9AA9B5" fill-rule="nonzero" points="10.25 5.85 10.9307374 6.53820095 6.71563121 10.695665 4.18885806 8.42153573 4.87036872 7.73410048 6.71639694 9.33335176"></polygon>
        <path d="M7.5,13.8973684 C11.033169,13.8973684 13.8973684,11.033169 13.8973684,7.5 C13.8973684,3.96683098 11.033169,1.10263158 7.5,1.10263158 C3.96683098,1.10263158 1.10263158,3.96683098 1.10263158,7.5 C1.10263158,11.033169 3.96683098,13.8973684 7.5,13.8973684 Z M7.5,14.65 C3.55116404,14.65 0.35,11.448836 0.35,7.5 C0.35,3.55116404 3.55116404,0.35 7.5,0.35 C11.448836,0.35 14.65,3.55116404 14.65,7.5 C14.65,11.448836 11.448836,14.65 7.5,14.65 Z" id="Oval" stroke="#9AA9B5" stroke-width="0.2" fill="#9AA9B5" fill-rule="nonzero"></path>
    </g>
</svg>