<?xml version="1.0" encoding="UTF-8"?>
<svg width="19px" height="16px" viewBox="0 0 19 16" version="1.1" xmlns="http://www.w3.org/2000/svg" xmlns:xlink="http://www.w3.org/1999/xlink">
    <!-- Generator: Sketch 48.2 (47327) - http://www.bohemiancoding.com/sketch -->
    <title>Group 5</title>
    <desc>Created with Sketch.</desc>
    <defs></defs>
    <g id="Symbols" stroke="none" stroke-width="1" fill="none" fill-rule="evenodd" opacity="0.300000012">
        <g id="Group-5" fill="#241947" fill-rule="nonzero">
            <path d="M13.9089944,8.76309766 L13.2620084,8.76309766 C13.1675132,8.76309766 13.0899768,8.79336915 13.0296472,8.85419538 C12.9688219,8.91466755 12.9385508,8.99216965 12.9385508,9.08656006 L12.9385508,12.3212195 C12.9385508,12.7660157 12.7802917,13.146693 12.4635964,13.4634638 C12.1469011,13.7801638 11.7660879,13.9383899 11.3212983,13.9383899 L2.91111817,13.9383899 C2.46636401,13.9383899 2.08558618,13.7801638 1.7688201,13.4634638 C1.45212483,13.1467284 1.29379489,12.7660511 1.29379489,12.3212195 L1.29379489,3.91102 C1.29379489,3.4662592 1.45208942,3.08561731 1.7688201,2.76888191 C2.08558618,2.4521111 2.46636401,2.2938142 2.91111817,2.2938142 L10.0272556,2.2938142 C10.1217508,2.2938142 10.1992872,2.26340109 10.2598647,2.2028227 C10.3204422,2.1421735 10.3507132,2.06474221 10.3507132,1.9703164 L10.3507132,1.32328538 C10.3507132,1.22903659 10.3204422,1.15146368 10.2598647,1.09092069 C10.1992872,1.03027149 10.1217508,1 10.0272556,1 L2.91111817,1 C2.10927194,1 1.42355321,1.28472905 0.854032795,1.85415176 C0.284724805,2.42353906 0,3.10926802 0,3.91112622 L0,12.3213611 C0,13.1231839 0.284724805,13.8090191 0.8540682,14.3782294 C1.42358862,14.9476875 2.10930735,15.2325581 2.91115358,15.2325581 L11.3212983,15.2325581 C12.1231092,15.2325581 12.8088987,14.9476875 13.3783483,14.3782294 C13.9478333,13.8090191 14.2325581,13.1232193 14.2325581,12.3213611 L14.2325581,9.0868079 C14.2325581,8.99231127 14.2022517,8.91477377 14.1414264,8.85419538 C14.0807781,8.79336915 14.0032417,8.76309766 13.9089944,8.76309766 Z" id="Shape"></path>
            <path d="M18.1082193,0.19396872 C17.9788748,0.0646204788 17.8255351,0 17.6487011,0 L12.42135,0 C12.2444087,0 12.0911763,0.0646204788 11.961939,0.19396872 C11.8325945,0.323245439 11.7678328,0.476410636 11.7678328,0.653392788 C11.7678328,0.830374941 11.8325945,0.983575899 11.961939,1.11292414 L13.7587806,2.90985265 L7.10213106,9.5668348 C7.03397217,9.63488836 7,9.71320537 7,9.80153552 C7,9.89018753 7.03407945,9.96846878 7.10213106,10.0365223 L8.26605328,11.2003347 C8.3341049,11.2683882 8.41241969,11.3023256 8.50089036,11.3023256 C8.58936104,11.3023256 8.66771158,11.268424 8.73572744,11.2003347 L15.3924128,4.54345979 L17.1893974,6.3403883 C17.3186346,6.46973654 17.4718312,6.53442854 17.6488084,6.53442854 C17.8257855,6.53442854 17.9789821,6.46973654 18.1083624,6.3403883 C18.2377069,6.21107582 18.3023256,6.05794638 18.3023256,5.88096423 L18.3023256,0.653392788 C18.3022898,0.476303352 18.2374566,0.323245439 18.1082193,0.19396872 Z" id="Shape"></path>
        </g>
    </g>
</svg>