<?xml version="1.0" encoding="UTF-8"?>
<svg width="17px" height="24px" viewBox="0 0 17 24" version="1.1" xmlns="http://www.w3.org/2000/svg" xmlns:xlink="http://www.w3.org/1999/xlink">
    <!-- Generator: Sketch 50.2 (55047) - http://www.bohemiancoding.com/sketch -->
    <title>Group 4</title>
    <desc>Created with Sketch.</desc>
    <defs></defs>
    <g id="Page-1" stroke="none" stroke-width="1" fill="none" fill-rule="evenodd">
        <g id="Proposal-list-Copy-3" transform="translate(-456.000000, -259.000000)" fill="#FFFFFF">
            <g id="Group" transform="translate(143.000000, 217.000000)">
                <g id="Group-4" transform="translate(313.000000, 42.000000)">
                    <path d="M1.24480694,8.50200125 L8.49997504,15.7588136 L15.7551931,8.50200125 L8.49997504,1.24523882 L1.24480694,8.50200125 Z M8.49997504,17.0039526 L0,8.50200125 L8.49997504,0 L17,8.50200125 L8.49997504,17.0039526 Z" id="Fill-68"></path>
                    <path d="M1.24480694,11.9881423 L8.49997504,19.2449759 L15.7551931,11.9881423 L8.49997504,4.73145841 L1.24480694,11.9881423 Z M8.49997504,20.4901186 L0,11.9881423 L8.49997504,3.48616601 L17,11.9881423 L8.49997504,20.4901186 Z" id="Fill-69"></path>
                    <path d="M1.23463687,15.5098814 L8.48810354,22.7667984 L15.7416201,15.5098814 L8.48810354,8.25296443 L1.23463687,15.5098814 Z M8.49997504,24 L0,15.4980736 L8.49997504,6.99604743 L17,15.4980736 L8.49997504,24 Z" id="Fill-70"></path>
                </g>
            </g>
        </g>
    </g>
</svg>