<?xml version="1.0" encoding="UTF-8"?>
<svg width="30px" height="30px" viewBox="0 0 30 30" version="1.1" xmlns="http://www.w3.org/2000/svg" xmlns:xlink="http://www.w3.org/1999/xlink">
    <!-- Generator: Sketch 50.2 (55047) - http://www.bohemiancoding.com/sketch -->
    <title>Group 7</title>
    <desc>Created with Sketch.</desc>
    <defs></defs>
    <g id="Page-1" stroke="none" stroke-width="1" fill="none" fill-rule="evenodd">
        <g id="Proposal-list-Copy-3" transform="translate(-684.000000, -10.000000)">
            <g id="Group-7" transform="translate(684.000000, 10.000000)">
                <rect id="Rectangle-27" stroke="#FFFFFF" transform="translate(14.849242, 14.849242) rotate(-315.000000) translate(-14.849242, -14.849242) " x="4.8492424" y="4.8492424" width="20" height="20"></rect>
                <g id="flaticon1529528311-svg" transform="translate(11.000000, 8.000000)" fill="#FFFFFF" fill-rule="nonzero">
                    <circle id="Oval" cx="3.42857143" cy="12.5714286" r="1.14285714"></circle>
                    <path d="M4,0 C1.7944,0 0,1.75777959 0,3.91836735 C0,4.45939592 0.4477,4.89795918 1,4.89795918 C1.5523,4.89795918 2,4.45939592 2,3.91836735 C2,2.83807347 2.8972,1.95918367 4,1.95918367 C5.1028,1.95918367 6,2.83807347 6,3.91836735 C6,4.99866122 5.1028,5.87755102 4,5.87755102 C3.4477,5.87755102 3,6.31611429 3,6.85714286 L3,9.30612245 C3,9.84715102 3.4477,10.2857143 4,10.2857143 C4.5523,10.2857143 5,9.84715102 5,9.30612245 L5,7.71276735 C6.7233,7.27670204 8,5.74084898 8,3.91836735 C8,1.75777959 6.2056,0 4,0 Z" id="Shape"></path>
                </g>
            </g>
        </g>
    </g>
</svg>