<?xml version="1.0" encoding="UTF-8" standalone="no"?>
<svg
   xmlns:dc="http://purl.org/dc/elements/1.1/"
   xmlns:cc="http://creativecommons.org/ns#"
   xmlns:rdf="http://www.w3.org/1999/02/22-rdf-syntax-ns#"
   xmlns:svg="http://www.w3.org/2000/svg"
   xmlns="http://www.w3.org/2000/svg"
   id="svg152"
   version="1.1"
   viewBox="0 0 853 331">
  <metadata
     id="metadata158">
    <rdf:RDF>
      <cc:Work
         rdf:about="">
        <dc:format>image/svg+xml</dc:format>
        <dc:type
           rdf:resource="http://purl.org/dc/dcmitype/StillImage" />
        <dc:title></dc:title>
      </cc:Work>
    </rdf:RDF>
  </metadata>
  <defs
     id="defs156" />
  <g
     id="g150"
     transform="matrix(-1 0 0 1 854 1)"
     stroke="#689BD6"
     fill-rule="evenodd"
     fill="none">
    <g
       id="g122"
       stroke-width="1.8">
      <path
         id="path116"
         d="M211.884 244.014c-2.134-5.005-7.1-8.514-12.884-8.514-7.732 0-14 6.268-14 14 0 2.441.625 4.736 1.723 6.734m2.368 3.156A13.956 13.956 0 0 0 199 263.5c7.732 0 14-6.268 14-14 0-.419-.018-.833-.054-1.242" />
      <path
         id="path118"
         d="M184.717 249.543c-9.6 5.877-15.557 11.374-14.372 13.802 1.63 3.344 16.187-.4 32.513-8.363 16.326-7.963 28.238-17.128 26.607-20.472-1.246-2.556-10.044-.97-21.41 3.473" />
      <path
         id="path120"
         d="M185.277 253.747c-2.63 1.8-4.085 3.196-3.788 3.805.633 1.3 9.016-1.485 18.724-6.22 9.707-4.734 17.062-9.626 16.428-10.925-.311-.639-2.494-.291-5.786.79" />
    </g>
    <g
       id="g130"
       stroke-width="1.8">
      <path
         id="path124"
         d="M764.116 63.514C766.25 58.509 771.216 55 777 55c7.732 0 14 6.268 14 14 0 2.441-.625 4.736-1.723 6.734m-2.368 3.156A13.956 13.956 0 0 1 777 83c-7.732 0-14-6.268-14-14 0-.419.018-.833.054-1.242" />
      <path
         id="path126"
         d="M790.872 69.886c9.672 5.731 15.782 10.912 14.776 12.974-1.385 2.839-15.742-1.314-32.067-9.277-16.326-7.963-28.438-16.72-27.053-19.559 1.058-2.17 9.695-.255 20.996 4.324" />
      <path
         id="path128"
         d="M790.723 73.247c2.63 1.8 4.085 3.196 3.788 3.805-.633 1.3-9.016-1.485-18.724-6.22-9.707-4.734-17.062-9.626-16.428-10.925.311-.639 2.494-.291 5.786.79" />
    </g>
    <g
       id="g134"
       stroke-width="2">
      <path
         id="path132"
         d="M145.5 129.433v-8.476M145.5 140.516v-7.705M146.917 130.85h8.476M135.833 130.85h7.706" />
    </g>
    <g
       id="g138"
       stroke-width="2">
      <path
         id="path136"
         d="M739.5 189.433v-8.476M739.5 200.516v-7.705M740.917 190.85h8.476M729.833 190.85h7.706" />
    </g>
    <path
       id="path140"
       d="M37.5 306.722l.611 7.167 7.167.611-7.167.611-.611 7.167-.611-7.167-7.167-.611 7.167-.611z"
       stroke-width="2" />
    <path
       id="path142"
       d="M5.3 122.252l-2.618.449 1.236-2.351-1.236-2.351 2.618.449 1.854-1.902.382 2.628 2.382 1.176-2.382 1.175-.382 2.629zM141.455 5.776l-1.964.337.927-1.763-.927-1.764 1.964.337 1.39-1.426.287 1.971 1.786.882-1.786.881-.287 1.972z"
       stroke-width="1.5" />
    <circle
       id="circle144"
       stroke-width="1.5"
       r="7.5"
       cy="11.5"
       cx="549.5" />
    <circle
       id="circle146"
       stroke-width="1.5"
       r="7.5"
       cy="321.5"
       cx="779.5" />
    <path
       id="path148"
       d="M849.114 255.039l-1.637.28.773-1.47-.773-1.469 1.637.281 1.159-1.189.238 1.643 1.489.735-1.489.735-.238 1.642zM604.65 237.115l-3.6.618 1.7-3.233-1.7-3.233 3.6.618 2.55-2.616.525 3.615L611 234.5l-3.275 1.616-.525 3.615zM651.17 91.181l-3.6.618 1.7-3.233-1.7-3.233 3.6.617 2.55-2.615.525 3.614 3.275 1.617-3.275 1.616-.525 3.615z"
       stroke-width="1.5" />
  </g>
  <g
     transform="translate(292.9738,35.415427)"
     style="fill:none;fill-rule:evenodd;stroke:#689bd6;stroke-width:2.20000005"
     id="g184">
    <path
       d="m 76.934,121.175 c -39.875,2.013 -36.159,-37.827 1.85,-30.926 11.89,2.16 16.214,10.795 14.052,20.51 -2.162,9.715 -12.853,10.262 -15.902,10.416 z m 80.866,83.803 c -9.729,7.556 -23.711,8.679 -29.292,1.868 -13.864,-16.917 4.663,-37.89 19.648,-37.982 35.945,-0.223 19.372,28.558 9.644,36.114 z M 83.333,142.784 c 14.194,-15 31.381,0.167 21.535,16.345 -9.847,16.178 -36.467,-0.564 -21.535,-16.345 z M 17.93,151.267 C 31.617,115.443 70.201,143.794 55.145,165.999 40.088,188.205 2.692,191.155 17.93,151.267 Z m 23.156,74.267 c -5.33,-5.432 -4.2,-16.738 12.014,-14.579 6.718,0.895 8.819,8.22 5.04,12.338 -3.78,4.116 -11.723,7.673 -17.054,2.24 z m 22.657,-39.271 c 5.834,-16.962 35.188,-0.184 34.048,15.496 -1.14,15.68 -39.883,1.465 -34.048,-15.496 z m 45.17,36.027 c 19.964,-6.661 21.923,12.119 6.295,18.742 -15.627,6.624 -26.259,-12.08 -6.295,-18.742 z"
       id="path160" />
    <path
       d="M 151.334,83.141 A 99.625,99.625 0 0 0 139.167,76.726 C 91.107,55.423 32.952,80.018 11.554,127.866 -9.844,175.714 5.002,230.538 53.062,251.841 c 48.06,21.304 108.447,-7.252 129.845,-55.1 12.897,-28.839 11.817,-58.773 -1.6,-82.67"
       id="path162" />
    <path
       d="m 220.323,24.473 c -15.116,8.706 -33.32,22.076 -49.412,38.168 -14.22,14.22 -24.566,29.17 -31.037,44.848 m 21.86,17.571 c 14.588,-6.521 28.538,-16.437 41.849,-29.748 15.994,-15.995 29.301,-34.078 38.01,-49.14 M 175.85,90.374 c -4.174,-4.174 -10.933,-4.182 -15.097,-0.018 -4.164,4.164 -4.156,10.923 0.017,15.097 4.174,4.174 10.933,4.181 15.097,0.017 4.164,-4.164 4.156,-10.923 -0.017,-15.096 z"
       id="path164" />
    <path
       style="opacity:0.9;stroke-linecap:square"
       d="m 152.676,113.486 7.539,-7.478"
       id="path166" />
    <path
       style="stroke-linecap:square"
       d="m 175.615,91.202 55.29,-55.29 m 9.678,10.47 L 219.42,25.22"
       id="path168" />
    <path
       d="m 220.3,25.447 2.841,-8.887 27.71,27.71 -8.383,3.345"
       id="path170" />
    <path
       style="stroke-linecap:square;stroke-linejoin:round"
       d="m 190.302,45.156 c -2.15,-5.486 -1.546,-12.553 1.813,-21.202 3.358,-8.65 12.313,-16.038 26.866,-22.165 -10.832,9.02 -14.852,19.41 -12.06,31.167 m 14.74,43.559 c 5.486,2.15 12.553,1.546 21.202,-1.813 8.65,-3.358 16.038,-12.313 22.165,-26.866 -9.02,10.832 -19.41,14.852 -31.167,12.06"
       id="path172" />
    <g
       id="g176">
      <path
         d="m 132.137,92 c -4.764,-6.108 -7.047,-10.291 -3.178,-18.416 0.981,-2.06 4.509,-5.905 4.953,-9.189 0.976,-7.22 -6.5,-11.486 -4.57,-19.382 1.258,-5.152 4.428,-6.926 2.44,-12.013 M 122,63 c -11.827,-10.498 -2.95,-14.487 -0.457,-24.857 0.901,-3.75 -4.252,-6.675 -4.693,-10.628 -0.323,-2.892 -0.807,-10.459 3.192,-11.515 m 22.839,34 c 1.01,-6.673 3.634,-13.298 3.03,-20.018 C 144.731,16.843 136.576,18.171 141.646,7"
         id="path174" />
    </g>
    <path
       d="m 159,123 11,13.115 -4.889,9.539 L 170,154 m -34.187,-40.387 -7.125,-3.554 v -9.478 l -9.5,-3.554"
       id="path178" />
    <path
       d="m 141.53,107.988 -5.621,5.053 -2.467,6.509 -11.925,-1.965 -15.172,6.392 M 149,112 l -5.87,16.545 h -8.217 L 127.87,138 H 122 m 20.6,-9 2.4,8.167 -6,7 3.6,12.833"
       id="path180" />
    <path
       d="m 136,103 4.737,3.6 v 1.2 l 3.263,4.2 6.21,0.6 2.79,5.4 h 6 v 5 l 5,6 12.263,-3.2 4.737,7.2"
       id="path182" />
  </g>
</svg>
