<?xml version="1.0" encoding="UTF-8"?>
<svg width="25px" height="41px" viewBox="0 0 25 41" version="1.1" xmlns="http://www.w3.org/2000/svg" xmlns:xlink="http://www.w3.org/1999/xlink">
    <!-- Generator: Sketch 50.2 (55047) - http://www.bohemiancoding.com/sketch -->
    <title>flaticon1529529237-svg</title>
    <desc>Created with Sketch.</desc>
    <defs>
        <rect id="path-1" x="0" y="0" width="31" height="41"></rect>
    </defs>
    <g id="Page-1" stroke="none" stroke-width="1" fill="none" fill-rule="evenodd">
        <g id="Proposal-list-Copy-5" transform="translate(-690.000000, -54.000000)">
            <g id="flaticon1529529237-svg" transform="translate(684.000000, 54.000000)">
                <mask id="mask-2" fill="white">
                    <use xlink:href="#path-1"></use>
                </mask>
                <g id="Mask"></g>
                <g mask="url(#mask-2)" fill="#FFFFFF" fill-rule="nonzero" id="Shape">
                    <g transform="translate(17.582936, 19.582936) scale(-1, 1) rotate(-71.000000) translate(-17.582936, -19.582936) translate(0.582936, 2.582936)">
                        <path d="M33.6738125,8.60253125 L33.674875,8.60146875 C33.6759375,8.599875 33.677,8.59828125 33.6780625,8.59615625 C33.7694375,8.4925625 33.836375,8.36771875 33.8900312,8.23596875 C33.9070313,8.19559375 33.9181875,8.15734375 33.9304063,8.1164375 C33.9612188,8.01496875 33.9803438,7.90978125 33.9867188,7.7998125 C33.9899063,7.7594375 33.9962813,7.7211875 33.9952187,7.67975 C33.9952187,7.6585 34.0005313,7.639375 33.9994688,7.61865625 C33.9920313,7.4916875 33.9665313,7.36896875 33.9272188,7.2536875 C33.9240313,7.24146875 33.9155313,7.23190625 33.9112813,7.2196875 C33.8645312,7.09271875 33.7975938,6.98009375 33.7184375,6.87703125 C33.7072813,6.8626875 33.7035625,6.8435625 33.691875,6.82921875 L28.2141563,0.37665625 C27.795,-0.11740625 27.1070313,-0.12696875 26.6767188,0.357 C26.2474688,0.8404375 26.2395,1.6330625 26.6597188,2.1281875 L29.6124063,5.60734375 C25.298125,5.03571875 21.0571563,5.943625 20.856875,5.98825 C7.7636875,8.36134375 -1.50184375,20.4525937 0.201875,32.94175 C0.28634375,33.560125 0.748,34 1.27446875,34 C1.33078125,34 1.38709375,33.9952187 1.44446875,33.9856562 C2.03734375,33.8778125 2.44215625,33.237125 2.34971875,32.5534062 C0.8319375,21.4290312 9.28571875,10.6223437 21.22875,8.45696875 C21.2834688,8.44421875 25.6652188,7.50390625 29.7909063,8.15203125 L25.234375,10.8576875 C24.7004688,11.175375 24.4916875,11.9308125 24.7663438,12.5454687 C25.0404688,13.1611875 25.6949688,13.3997187 26.2304688,13.08575 L33.4129688,8.820875 C33.5101875,8.76190625 33.5973125,8.6880625 33.6738125,8.60253125 Z"></path>
                    </g>
                </g>
            </g>
        </g>
    </g>
</svg>