<?xml version="1.0" encoding="UTF-8"?>
<svg width="21px" height="23px" viewBox="0 0 21 23" version="1.1" xmlns="http://www.w3.org/2000/svg" xmlns:xlink="http://www.w3.org/1999/xlink">
    <!-- Generator: Sketch 50.2 (55047) - http://www.bohemiancoding.com/sketch -->
    <title>Group-9</title>
    <desc>Created with Sketch.</desc>
    <defs></defs>
    <g id="Symbols" stroke="none" stroke-width="1" fill="none" fill-rule="evenodd">
        <g id="DAO-Header" transform="translate(-322.000000, -49.000000)" fill="#FFFFFF" fill-rule="nonzero">
            <g id="Alchemy-logotype-with-mark" transform="translate(319.000000, 48.000000)">
                <g id="Group-9" transform="translate(0.000000, 0.774194)">
                    <path d="M11.2964445,9.42953389 L17.1668802,15.3115828 L23.0373563,9.42953389 L17.1668802,3.54752548 L11.2964445,9.42953389 Z M17.1668802,16.320837 L10.2892233,9.42953389 L17.1668802,2.53819036 L24.0445775,9.42953389 L17.1668802,16.320837 Z" id="Fill-68-Copy" transform="translate(17.166900, 9.429514) rotate(-30.000000) translate(-17.166900, -9.429514) "></path>
                    <path d="M7.44822042,16.088872 L13.3186561,21.9709209 L19.1891322,16.088872 L13.3186561,10.2068636 L7.44822042,16.088872 Z M13.3186561,22.9801751 L6.4409992,16.088872 L13.3186561,9.19752852 L20.1963534,16.088872 L13.3186561,22.9801751 Z" id="Fill-68-Copy-3"></path>
                    <path d="M3.54541158,9.42953389 L9.41584728,15.3115828 L15.2863234,9.42953389 L9.41584728,3.54752548 L3.54541158,9.42953389 Z M9.41584728,16.320837 L2.53819036,9.42953389 L9.41584728,2.53819036 L16.2935446,9.42953389 L9.41584728,16.320837 Z" id="Fill-68-Copy-2" transform="translate(9.415867, 9.429514) rotate(-60.000000) translate(-9.415867, -9.429514) "></path>
                    <path d="M7.55738989,7.10968248 L13.4278256,12.9917314 L19.2983017,7.10968248 L13.4278256,1.22767409 L7.55738989,7.10968248 Z M13.4278256,14.0009856 L6.55016868,7.10968248 L13.4278256,0.218338956 L20.3055229,7.10968248 L13.4278256,14.0009856 Z" id="Fill-68-Copy" transform="translate(13.427846, 7.109662) rotate(-90.000000) translate(-13.427846, -7.109662) "></path>
                    <path d="M11.3783216,13.7690206 L17.2487573,19.6510695 L23.1192334,13.7690206 L17.2487573,7.88701223 L11.3783216,13.7690206 Z M17.2487573,20.6603237 L10.3711004,13.7690206 L17.2487573,6.87767712 L24.1264546,13.7690206 L17.2487573,20.6603237 Z" id="Fill-68-Copy-3" transform="translate(17.248778, 13.769000) rotate(-60.000000) translate(-17.248778, -13.769000) "></path>
                    <path d="M3.70916579,13.8236054 L9.5796015,19.7056543 L15.4500776,13.8236054 L9.5796015,7.94159697 L3.70916579,13.8236054 Z M9.5796015,20.7149085 L2.70194458,13.8236054 L9.5796015,6.93226186 L16.4572988,13.8236054 L9.5796015,20.7149085 Z" id="Fill-68-Copy-2" transform="translate(9.579622, 13.823585) rotate(-120.000000) translate(-9.579622, -13.823585) "></path>
                </g>
            </g>
        </g>
    </g>
</svg>