<?xml version="1.0" encoding="UTF-8"?>
<svg width="55px" height="55px" viewBox="0 0 55 55" version="1.1" xmlns="http://www.w3.org/2000/svg" xmlns:xlink="http://www.w3.org/1999/xlink">
    <!-- Generator: Sketch 49 (51002) - http://www.bohemiancoding.com/sketch -->
    <title>flaticon1520459956-svg</title>
    <desc>Created with Sketch.</desc>
    <defs></defs>
    <g id="Symbols" stroke="none" stroke-width="1" fill="none" fill-rule="evenodd">
        <g id="flaticon1520459956-svg" transform="translate(27.114506, 27.098904) scale(-1, 1) rotate(-89.000000) translate(-27.114506, -27.098904) translate(-0.385494, -0.401096)" fill="#39D8BE" fill-rule="nonzero">
            <path d="M53.5869873,13.6896805 C53.7391606,13.5146811 53.8456819,13.3160104 53.9310681,13.1063494 C53.9581211,13.0420985 53.9758746,12.9812291 53.995319,12.9161328 C54.0443526,12.75466 54.0747873,12.5872693 54.0849322,12.41227 C54.0900046,12.3480191 54.1001495,12.2871497 54.0984587,12.221208 C54.0933863,11.9219338 54.0528067,11.7266447 53.9902466,11.5431913 C53.8904885,11.2870329 53.7839672,11.1078065 53.6580015,10.9437975 C53.6461658,10.9285802 50.7264108,7.48044562 44.8987364,0.599393778 C44.2317101,-0.186835014 43.1369076,-0.202052345 42.4521277,0.568113707 C41.7690386,1.33743435 41.7563575,2.59878205 42.4250747,3.38670165 L47.1238485,8.92327408 C40.2582958,8.01361582 33.5094093,9.4584169 33.1906907,9.52943112 C12.3547823,13.3058655 -2.38996644,32.5473357 0.321254775,52.422016 C0.455674536,53.4060701 1.19033348,54.1060674 2.02813212,54.1060674 C2.11774529,54.1060674 2.20735847,54.0984587 2.29866246,54.0832414 C3.24213701,53.9116237 3.88633737,52.8920625 3.7392365,51.8040233 C1.32390784,34.1011944 14.7768742,16.903919 33.7824758,13.4580389 C33.8695528,13.4377491 40.8424722,11.9413781 47.4079053,12.9727751 L40.1568469,17.2784345 C39.3072125,17.783988 38.9749675,18.9861572 39.412043,19.9642935 C39.8482732,20.9441205 40.889815,21.3237084 41.7419856,20.8240727 L53.1718923,14.0371429 C53.3266018,13.9433026 53.4652486,13.825791 53.5869873,13.6896805 Z" id="Shape"></path>
        </g>
    </g>
</svg>