<?xml version="1.0" encoding="UTF-8"?>
<svg width="32px" height="32px" viewBox="0 0 32 32" version="1.1" xmlns="http://www.w3.org/2000/svg" xmlns:xlink="http://www.w3.org/1999/xlink">
    <g id="Symbols" stroke="none" stroke-width="1" fill="none" fill-rule="evenodd">
        <g id="Blue-Nav-Bar-2" transform="translate(-22.000000, -16.000000)" fill="#0090FF">
            <g id="Group" transform="translate(22.000000, 16.000000)">
                <path d="M30.6472661,0 L9.90395111,0 C9.37026008,0 8.93772616,0.428534902 8.93772616,0.957114063 L8.93772616,5.11449281 C8.93772616,6.00452683 9.66631907,6.72628498 10.5651059,6.72628498 L14.0702875,6.72628498 C14.9692197,6.72628498 15.6978127,7.44789918 15.6978127,8.3379332 L15.6978127,14.2293165 C15.6978127,15.1194944 16.4264056,15.8409647 17.3251924,15.8409647 C17.3251924,15.8409647 22.2305863,15.8408207 22.5125473,15.8405328 C23.4021777,15.8396691 24.1282998,16.5457369 24.1423978,17.4267022 C24.153153,18.1011012 24.1628909,20.8470642 24.1628909,20.8470642 C24.1628909,21.7370982 24.8913384,22.4587124 25.7901253,22.4587124 L30.6472661,22.4587124 C31.1811024,22.4587124 31.6136364,22.0301775 31.6136364,21.5017423 L31.6136364,0.957114063 C31.6136364,0.428534902 31.1811024,0 30.6472661,0" id="Fill-50"></path>
                <path d="M21.0485304,23.0955409 L10.4502868,23.0955409 C9.55149992,23.0955409 8.82305235,22.3737828 8.82305235,21.4837488 L8.82305235,10.4640536 C8.82305235,9.57387565 8.0943141,8.85226146 7.19567257,8.85226146 L0.966224954,8.85226146 C0.432533914,8.85226146 0,9.28079636 0,9.80937552 L0,30.3538598 C0,30.8825829 0.432533914,31.3109739 0.966224954,31.3109739 L21.7095399,31.3109739 C22.2432309,31.3109739 22.6757649,30.8825829 22.6757649,30.3538598 L22.6757649,24.7073331 C22.6757649,23.8171551 21.9473173,23.0955409 21.0485304,23.0955409" id="Fill-51"></path>
            </g>
        </g>
    </g>
</svg>
