<?xml version="1.0" encoding="UTF-8"?>
<svg width="19px" height="16px" viewBox="0 0 19 16" version="1.1" xmlns="http://www.w3.org/2000/svg" xmlns:xlink="http://www.w3.org/1999/xlink">
    <!-- Generator: Sketch 50.2 (55047) - http://www.bohemiancoding.com/sketch -->
    <title>flaticon1526933602-svg</title>
    <desc>Created with Sketch.</desc>
    <defs></defs>
    <g id="Symbols" stroke="none" stroke-width="1" fill="none" fill-rule="evenodd" opacity="0.200000003">
        <g id="DAO-Header" transform="translate(-101.000000, -148.000000)" fill="#000000" fill-rule="nonzero">
            <g id="flaticon1526933602-svg" transform="translate(101.000000, 148.000000)">
                <path d="M11.3425309,2.80517647 C12.2116049,3.35176471 12.8210123,4.27670588 12.931963,5.35035294 C13.2863951,5.51647059 13.6797654,5.612 14.0968272,5.612 C15.6194074,5.612 16.8534691,4.37411765 16.8534691,2.84705882 C16.8534691,1.31976471 15.6194074,0.0818823529 14.0968272,0.0818823529 C12.5887901,0.0823529412 11.3655185,1.29811765 11.3425309,2.80517647 Z M9.53659259,8.46682353 C11.0591728,8.46682353 12.2932346,7.22870588 12.2932346,5.70164706 C12.2932346,4.17458824 11.0589383,2.93670588 9.53659259,2.93670588 C8.01424691,2.93670588 6.77948148,4.17482353 6.77948148,5.70188235 C6.77948148,7.22894118 8.01424691,8.46682353 9.53659259,8.46682353 Z M10.7059136,8.65529412 L8.36680247,8.65529412 C6.42059259,8.65529412 4.83725926,10.2437647 4.83725926,12.196 L4.83725926,15.0654118 L4.84453086,15.1103529 L5.0415679,15.1722353 C6.89887654,15.7543529 8.51246914,15.9484706 9.84059259,15.9484706 C12.434679,15.9484706 13.9382593,15.2065882 14.0309136,15.1592941 L14.2150494,15.0658824 L14.2347531,15.0658824 L14.2347531,12.196 C14.2354568,10.2437647 12.6521235,8.65529412 10.7059136,8.65529412 Z M15.2666173,5.80070588 L12.9455679,5.80070588 C12.9204691,6.73223529 12.5240494,7.57105882 11.8970494,8.17435294 C13.6269877,8.69035294 14.892716,10.2995294 14.892716,12.2002353 L14.892716,13.0844706 C17.1844444,13.0002353 18.5050617,12.3487059 18.5920864,12.3049412 L18.7762222,12.2112941 L18.7959259,12.2112941 L18.7959259,9.34094118 C18.7959259,7.38894118 17.2125926,5.80070588 15.2666173,5.80070588 Z M4.6995679,5.61247059 C5.23883951,5.61247059 5.74058025,5.45458824 6.16561728,5.18564706 C6.3007284,4.30164706 6.77314815,3.52917647 7.448,3.00305882 C7.45081481,2.95129412 7.45574074,2.9 7.45574074,2.84776471 C7.45574074,1.32047059 6.22144444,0.0825882353 4.6995679,0.0825882353 C3.17675309,0.0825882353 1.94292593,1.32047059 1.94292593,2.84776471 C1.94292593,4.37435294 3.17675309,5.61247059 4.6995679,5.61247059 Z M7.17519753,8.17435294 C6.55124691,7.57411765 6.15623457,6.73976471 6.12738272,5.81388235 C6.0412963,5.80752941 5.95614815,5.80070588 5.86841975,5.80070588 L3.52954321,5.80070588 C1.58333333,5.80070588 0,7.38894118 0,9.34094118 L0,12.2108235 L0.00727160494,12.2550588 L0.204308642,12.3174118 C1.69428395,12.784 3.02404938,12.9990588 4.17906173,13.0668235 L4.17906173,12.2002353 C4.17953086,10.2995294 5.44479012,8.69082353 7.17519753,8.17435294 Z" id="Shape"></path>
            </g>
        </g>
    </g>
</svg>