<?xml version="1.0" encoding="UTF-8"?>
<svg width="11px" height="14px" viewBox="0 0 11 14" version="1.1" xmlns="http://www.w3.org/2000/svg" xmlns:xlink="http://www.w3.org/1999/xlink">
    <!-- Generator: Sketch 50.2 (55047) - http://www.bohemiancoding.com/sketch -->
    <title>flaticon1526944547-svg</title>
    <desc>Created with Sketch.</desc>
    <defs></defs>
    <g id="Symbols" stroke="none" stroke-width="1" fill="none" fill-rule="evenodd" opacity="0.300000012">
        <g id="Proposal-Object-Copy-8" transform="translate(-659.000000, -60.000000)" fill="#000000" fill-rule="nonzero">
            <g id="flaticon1526944547-svg" transform="translate(659.000000, 60.000000)">
                <path d="M10.8194893,3.77852632 L7.17444055,0.133477583 C7.0928694,0.0518518519 6.97745809,0 6.8522768,0 L0.473434698,0 C0.221816764,0 0.0177933723,0.203996101 0.0177933723,0.455641326 L0.0177933723,13.5170955 C0.0177933723,13.7687135 0.221789474,13.9727368 0.473434698,13.9727368 L10.4973255,13.9727368 C10.7489435,13.9727368 10.9529669,13.7687407 10.9529669,13.5170955 L10.9529669,4.10069006 C10.9529669,3.98495127 10.9071189,3.86612865 10.8194893,3.77852632 Z M7.30791813,1.55561014 L8.35262378,2.60031579 L9.39735673,3.64504873 L7.30791813,3.64504873 L7.30791813,1.55561014 Z M10.0417115,13.0614542 L0.929048733,13.0614542 L0.929048733,0.911255361 L6.39663548,0.911255361 L6.39663548,4.10069006 C6.39663548,4.35230799 6.60063158,4.55633138 6.8522768,4.55633138 L10.0417115,4.55633138 L10.0417115,13.0614542 Z" id="Shape"></path>
                <path d="M8.67481481,6.68261209 L2.29594542,6.68261209 C2.04432749,6.68261209 1.84030409,6.88660819 1.84030409,7.13825341 C1.84030409,7.38987135 2.04430019,7.59389474 2.29594542,7.59389474 L8.67481481,7.59389474 C8.92643275,7.59389474 9.13045614,7.38989864 9.13045614,7.13825341 C9.13042885,6.88660819 8.92643275,6.68261209 8.67481481,6.68261209 Z" id="Shape"></path>
                <path d="M8.67481481,8.50512281 L2.29594542,8.50512281 C2.04432749,8.50512281 1.84030409,8.70911891 1.84030409,8.96076413 C1.84030409,9.21240936 2.04430019,9.41640546 2.29594542,9.41640546 L8.67481481,9.41640546 C8.92643275,9.41640546 9.13045614,9.21240936 9.13045614,8.96076413 C9.13045614,8.70911891 8.92643275,8.50512281 8.67481481,8.50512281 Z" id="Shape"></path>
                <path d="M5.94102144,10.3276608 L2.29594542,10.3276608 C2.04432749,10.3276608 1.84030409,10.5316569 1.84030409,10.7833021 C1.84030409,11.0349474 2.04430019,11.2389435 2.29594542,11.2389435 L5.94099415,11.2389435 C6.19261209,11.2389435 6.39663548,11.0349474 6.39663548,10.7833021 C6.39663548,10.5316569 6.19263938,10.3276608 5.94102144,10.3276608 Z" id="Shape"></path>
            </g>
        </g>
    </g>
</svg>