<?xml version="1.0" encoding="UTF-8"?>
<svg width="15px" height="18px" viewBox="0 0 15 18" version="1.1" xmlns="http://www.w3.org/2000/svg" xmlns:xlink="http://www.w3.org/1999/xlink">
    <!-- Generator: Sketch 51.3 (57544) - http://www.bohemiancoding.com/sketch -->
    <title>vote/for-btn</title>
    <desc>Created with Sketch.</desc>
    <defs></defs>
    <g id="vote/for-btn" stroke="none" stroke-width="1" fill="none" fill-rule="evenodd">
        <path d="M1,14.0058139 L1,7.00581395 L5,7.00581395 L5,13.996751 L1,14.0058139 Z M2,12.996751 L4,12.996751 L4,8.00581395 L2,8.00581395 L2,12.996751 Z M13.3181818,5.99907485 C14.2496793,5.99907485 15,6.69115486 15,7.63189873 L15,8.83904159 C15,9.04990317 14.958388,9.25710881 14.875525,9.47275036 L12.5952268,12.9503785 C12.3376691,13.5773783 11.7307326,13.996751 11.0454545,13.996751 L5.93506494,13.996751 L4,13.996751 L4,7.50581395 L4.5,7.50581395 L4.96944745,7.33371197 L4.39868908,7.0162616 L4.18931323,7.11419363 C4.1577916,7.14059983 4.1577916,7.14059983 4.12717421,7.17287279 C4.1018632,7.20324752 4.1018632,7.20324752 4.09542007,7.21245625 C4.12904185,7.15851883 4.12904185,7.15851883 4.16897452,7.09550463 C4.24605744,6.97422163 4.31644188,6.86620715 4.38793002,6.76108828 C4.4230105,6.70975757 4.4230105,6.70975757 4.4588994,6.6584268 C4.54724773,6.53289168 4.62546382,6.43037419 4.69708745,6.3499791 L6.96630937,1.3895709 L8.00191487,1.37779339 L8.63288673,2.01624241 C8.88850079,2.27733392 9.01618483,2.63080723 9.01618483,3.00581395 C9.01618483,3.03617443 9.01618483,4.03392806 9.01618483,5.99907485 L13.3181818,5.99907485 Z M11.0454545,12.996751 C11.3195045,12.996751 11.5646869,12.8273382 11.6715204,12.5672922 L13.947408,9.10077768 C13.9825034,9.00916737 14,8.92204385 14,8.83904159 L14,7.63189873 C14,7.23874974 13.6925934,6.99907485 13.3181818,6.99907485 L8,6.99907485 L8.00815931,3.00581395 C7.99784521,2.86311896 7.96845143,2.76701272 7.91997795,2.71749523 L7.15794349,3.00608223 L5.52687545,6.91033622 L5.45861268,6.99907485 C5.4201833,7.03887289 5.35519653,7.1223919 5.27667882,7.23395857 C5.24583301,7.27807498 5.24583301,7.27807498 5.21482978,7.32343762 C5.15011425,7.41859779 5.08494276,7.5186123 5.01294216,7.63189873 C5.00967927,7.63704762 5.00536522,9.4253317 5,12.996751 L11.0454545,12.996751 Z" id="for-btn" fill="#0076FF" fill-rule="nonzero"></path>
    </g>
</svg>