<?xml version="1.0" encoding="UTF-8"?>
<svg width="40px" height="33px" viewBox="0 0 40 33" version="1.1" xmlns="http://www.w3.org/2000/svg" xmlns:xlink="http://www.w3.org/1999/xlink">
    <!-- Generator: Sketch 50.2 (55047) - http://www.bohemiancoding.com/sketch -->
    <title>flaticon1530115236-svg</title>
    <desc>Created with Sketch.</desc>
    <defs></defs>
    <g id="Page-1" stroke="none" stroke-width="1" fill="none" fill-rule="evenodd">
        <g id="Artboard-2" transform="translate(-160.000000, -288.000000)" fill="#FFFFFF" fill-rule="nonzero">
            <g id="flaticon1530115236-svg" transform="translate(160.000000, 288.000000)">
                <path d="M18.3803125,7.068125 C16.5489844,7.068125 15.0591406,8.55804687 15.0591406,10.3894531 L15.0591406,12.7338281 C15.0591406,14.5650781 16.5490625,16.055 18.3803125,16.055 C20.2116406,16.055 21.7015625,14.5651563 21.7015625,12.7338281 L21.7015625,10.3894531 C21.7015625,8.55804687 20.2116406,7.068125 18.3803125,7.068125 Z M18.3803125,14.8828125 C17.2603125,14.8828125 16.3382031,14.0214062 16.2403906,12.9266406 C16.8188281,13.4153125 17.5655469,13.7107031 18.3803125,13.7107031 C19.1950781,13.7107031 19.9417969,13.4153125 20.5203125,12.9265625 C20.4225,14.0214062 19.5003906,14.8828125 18.3803125,14.8828125 Z M18.3803125,12.5384375 C17.1953125,12.5384375 16.2313281,11.574375 16.2313281,10.3894531 C16.2313281,9.204375 17.1953906,8.2403125 18.3803125,8.2403125 C19.5653125,8.2403125 20.529375,9.204375 20.529375,10.3894531 C20.529375,11.574375 19.5653125,12.5384375 18.3803125,12.5384375 Z" id="Shape"></path>
                <path d="M18.3803125,9.02195312 C18.0566406,9.02195312 17.7942187,9.28429687 17.7942187,9.60804687 L17.7942187,11.1709375 C17.7942187,11.4946094 18.0566406,11.7570313 18.3803125,11.7570313 C18.7039844,11.7570313 18.9664063,11.4946875 18.9664063,11.1709375 L18.9664063,9.60804687 C18.9664063,9.28421875 18.7039844,9.02195312 18.3803125,9.02195312 Z" id="Shape"></path>
                <path d="M28.93,0.035078125 C26.0213281,0.035078125 23.6550781,2.40132813 23.6550781,5.30984375 L23.6550781,7.65265625 C23.6550781,7.65320313 23.655,7.65367188 23.655,7.65421875 C23.655,10.5627344 26.0213281,12.9289844 28.9298438,12.9289844 C31.8351562,12.9289844 34.1991406,10.5678125 34.2042969,7.66367188 C34.2042969,7.66054688 34.2047656,7.6575 34.2047656,7.654375 L34.2047656,5.30984375 C34.2047656,2.40132813 31.8385156,0.035078125 28.93,0.035078125 Z M28.9298438,11.756875 C27.0725781,11.756875 25.5005469,10.5159375 24.996875,8.82 C25.9635938,9.90210938 27.3682813,10.5848438 28.93,10.5848438 C30.4914063,10.5848438 31.8959375,9.90234375 32.8625,8.82054688 C32.35875,10.5161719 30.786875,11.756875 28.9298438,11.756875 Z M28.93,9.41265625 C26.6677344,9.41265625 24.8272656,7.57210938 24.8272656,5.30992188 C24.8272656,3.04773438 26.6678125,1.20734375 28.93,1.20734375 C31.1921875,1.20734375 33.0325781,3.0478125 33.0325781,5.30992188 C33.0325781,7.57210938 31.1921875,9.41265625 28.93,9.41265625 Z" id="Shape"></path>
                <path d="M28.9303125,3.16085938 C28.6065625,3.16085938 28.3442187,3.423125 28.3441406,3.74679688 L28.3435156,6.87296875 C28.3435156,7.1965625 28.6058594,7.4590625 28.9295313,7.45914062 L28.9296094,7.45914062 C29.2532812,7.45914062 29.515625,7.19679687 29.5157031,6.87320312 L29.5163281,3.74703125 C29.5164062,3.42335938 29.2539844,3.1609375 28.9303125,3.16085938 Z" id="Shape"></path>
                <path d="M39.6625,19.8679687 C38.8582812,18.4755469 37.074375,17.9923437 35.6775781,18.7850781 C35.4236719,18.9102344 32.1813281,20.5036719 29.5091406,21.628125 C29.2107812,21.7536719 29.0707812,22.0973437 29.19625,22.3957031 C29.3217187,22.6940625 29.6653125,22.8339844 29.9638281,22.7085937 C32.7653125,21.5296875 36.1785156,19.8451562 36.2126562,19.8282812 C36.2238281,19.8227344 36.2348437,19.816875 36.245625,19.8107031 C37.0853906,19.3265625 38.1628906,19.6150781 38.6475781,20.4544531 C39.2088281,21.4251563 38.3324219,22.4909375 37.9034375,22.92625 C34.9936719,25.2735156 26.9416406,31.2927344 24.2352344,31.2927344 C21.2353906,31.2927344 12.8173438,29.509375 10.7586719,29.0632813 L10.7586719,19.4899219 C14.8405469,18.8901562 17.0030469,19.6424219 21.5346875,21.2216406 C22.9132813,21.7020312 24.4750781,22.2461719 26.3733594,22.853125 C26.6563281,22.9764062 27.4414062,23.4182812 27.1421875,24.4171094 C26.9603125,25.0242969 26.3739844,25.6040625 25.5153125,25.4433594 C24.3614844,25.2267969 17.5711719,24.3057813 17.2826563,24.2667188 C16.9620313,24.2229687 16.6666406,24.4480469 16.6232031,24.7688281 C16.5797656,25.0896094 16.8045313,25.3848438 17.1253125,25.4282813 C17.195625,25.4378125 24.174375,26.3842969 25.2992188,26.5954687 C25.4738281,26.6282031 25.6432813,26.6436719 25.8071094,26.6436719 C27.0514063,26.6436719 27.9664844,25.750625 28.2652344,24.7535156 C28.5795313,23.7042188 28.2528906,22.3759375 26.8171875,21.768125 C26.8151562,21.7671875 26.8130469,21.76625 26.8109375,21.7653906 C26.8091406,21.7646094 26.8074219,21.76375 26.8055469,21.7629687 C26.7976562,21.7596875 26.7896094,21.7573437 26.7816406,21.754375 C26.7735156,21.7514062 26.7657813,21.7479687 26.7574219,21.7453125 C24.86125,21.1396094 23.2989844,20.5951562 21.9205469,20.1148437 C17.4013281,18.5400781 15.0196875,17.7115625 10.75875,18.3063281 L10.75875,17.8163281 C10.75875,17.4925781 10.4963281,17.2302344 10.1726562,17.2302344 L8.41484375,17.2302344 L8.41484375,16.6444531 C8.41484375,16.3207031 8.15242187,16.0583594 7.82875,16.0583594 L0.58609375,16.0583594 C0.262421875,16.0583594 0,16.3207031 0,16.6444531 L0,29.534375 C0,29.858125 0.262421875,30.1204687 0.58609375,30.1204687 C0.909765625,30.1204687 1.1721875,29.858125 1.1721875,29.534375 L1.1721875,17.2304688 L7.24265625,17.2304688 L7.24265625,31.2927344 L6.07117188,31.2927344 L6.07117188,30.7069531 C6.07117188,30.3832031 5.80875,30.1208594 5.48507813,30.1208594 C5.16140625,30.1208594 4.89898438,30.3832031 4.89898438,30.7069531 L4.89898438,31.2927344 L0.58609375,31.2927344 C0.262421875,31.2927344 0,31.5550781 0,31.8788281 C0,32.2025781 0.262421875,32.4649219 0.58609375,32.4649219 L7.82875,32.4649219 C8.15242187,32.4649219 8.41484375,32.2025781 8.41484375,31.8788281 L8.41484375,31.2632812 L10.1725781,31.2632812 C10.49625,31.2632812 10.7586719,31.0009375 10.7586719,30.6771875 L10.7586719,30.2630469 C13.2108594,30.7928906 21.1917969,32.4649219 24.2352344,32.4649219 C25.8369531,32.4649219 28.6771094,31.0378125 32.9178125,28.1023438 C35.9761719,25.9852344 38.6383594,23.839375 38.6648438,23.8179687 C38.6810938,23.8048437 38.6965625,23.7908594 38.71125,23.7761719 C39.9846094,22.50125 40.3401562,21.0401562 39.6625,19.8679687 Z M9.58640625,29.5253906 C9.58640625,29.5259375 9.58640625,29.5264844 9.58640625,29.5269531 L9.58640625,30.09125 L8.41484375,30.09125 L8.41484375,18.4023437 L9.58648437,18.4023437 L9.58648437,29.5253906 L9.58640625,29.5253906 Z" id="Shape"></path>
            </g>
        </g>
    </g>
</svg>