<?xml version="1.0" encoding="UTF-8"?>
<svg width="12px" height="12px" viewBox="0 0 12 12" version="1.1" xmlns="http://www.w3.org/2000/svg" xmlns:xlink="http://www.w3.org/1999/xlink">
    <!-- Generator: Sketch 50.2 (55047) - http://www.bohemiancoding.com/sketch -->
    <title>Shape</title>
    <desc>Created with Sketch.</desc>
    <defs></defs>
    <g id="Page-1" stroke="none" stroke-width="1" fill="none" fill-rule="evenodd" opacity="0.5">
        <g id="Proposal-list-Copy-3" transform="translate(-204.000000, -475.000000)" fill="#FFFFFF" fill-rule="nonzero">
            <g id="Group-6" transform="translate(193.000000, 464.000000)">
                <g id="Group-5">
                    <g id="flaticon1529528933-svg" transform="translate(11.000000, 11.000000)">
                        <path d="M7.42618223,6.00002817 L11.7046233,1.72158211 C12.0984589,1.32774601 12.0984589,0.689213173 11.7046233,0.295433417 C11.3107876,-0.0984026819 10.6723119,-0.0984026819 10.2784763,0.295433417 L5.99997887,4.57393583 L1.72148148,0.295377074 C1.32764585,-0.0984590247 0.689170107,-0.0984590247 0.29533447,0.295377074 C-0.0984448235,0.689213173 -0.0984448235,1.32774601 0.29533447,1.72152576 L4.57383186,5.99997183 L0.29533447,10.2784742 C-0.0984448235,10.6723103 -0.0984448235,11.3108432 0.29533447,11.7046229 C0.689170107,12.098459 1.32764585,12.098459 1.72148148,11.7046229 L5.99997887,7.42612052 L10.2784763,11.7046229 C10.6722556,12.098459 11.3107876,12.098459 11.7046233,11.7046229 C12.0984589,11.3107868 12.0984589,10.6723103 11.7046233,10.2784742 L7.42618223,6.00002817 Z" id="Shape"></path>
                    </g>
                </g>
            </g>
        </g>
    </g>
</svg>