<?xml version="1.0" encoding="UTF-8"?>
<svg width="19px" height="14px" viewBox="0 0 19 14" version="1.1" xmlns="http://www.w3.org/2000/svg" xmlns:xlink="http://www.w3.org/1999/xlink">
    <!-- Generator: Sketch 50.2 (55047) - http://www.bohemiancoding.com/sketch -->
    <title>Shape</title>
    <desc>Created with Sketch.</desc>
    <defs></defs>
    <g id="Page-1" stroke="none" stroke-width="1" fill="none" fill-rule="evenodd">
        <g id="Proposal-list-Copy-3" transform="translate(-351.000000, -473.000000)" fill="#3AB4D0" fill-rule="nonzero">
            <g id="Group-6" transform="translate(193.000000, 464.000000)">
                <g id="Group-2" transform="translate(145.000000, 0.000000)">
                    <g id="flaticon1529529120-svg" transform="translate(13.000000, 9.000000)">
                        <path d="M0.21,7.7 C0.07,7.56 0,7.35 0,7.21 C0,7.07 0.07,6.86 0.21,6.72 L1.19,5.74 C1.47,5.46 1.89,5.46 2.17,5.74 L2.24,5.81 L6.09,9.94 C6.23,10.08 6.44,10.08 6.58,9.94 L15.96,0.21 L16.03,0.21 C16.31,-0.07 16.73,-0.07 17.01,0.21 L17.99,1.19 C18.27,1.47 18.27,1.89 17.99,2.17 L6.79,13.79 C6.65,13.93 6.51,14 6.3,14 C6.09,14 5.95,13.93 5.81,13.79 L0.35,7.91 L0.21,7.7 Z" id="Shape"></path>
                    </g>
                </g>
            </g>
        </g>
    </g>
</svg>