<?xml version="1.0" encoding="UTF-8" standalone="no"?>
<svg
   xmlns:dc="http://purl.org/dc/elements/1.1/"
   xmlns:cc="http://creativecommons.org/ns#"
   xmlns:rdf="http://www.w3.org/1999/02/22-rdf-syntax-ns#"
   xmlns:svg="http://www.w3.org/2000/svg"
   xmlns="http://www.w3.org/2000/svg"
   id="svg178"
   version="1.1"
   viewBox="0 0 853 331">
  <metadata
     id="metadata184">
    <rdf:RDF>
      <cc:Work
         rdf:about="">
        <dc:format>image/svg+xml</dc:format>
        <dc:type
           rdf:resource="http://purl.org/dc/dcmitype/StillImage" />
        <dc:title></dc:title>
      </cc:Work>
    </rdf:RDF>
  </metadata>
  <defs
     id="defs182" />
  <g
     id="g176"
     transform="translate(-1 1)"
     stroke="#689BD6"
     fill-rule="evenodd"
     fill="none">
    <g
       id="g148"
       stroke-width="1.8">
      <path
         id="path142"
         d="M163.884 282.014c-2.134-5.005-7.1-8.514-12.884-8.514-7.732 0-14 6.268-14 14 0 2.441.625 4.736 1.723 6.734m2.368 3.156A13.956 13.956 0 0 0 151 301.5c7.732 0 14-6.268 14-14 0-.419-.018-.833-.054-1.242" />
      <path
         id="path144"
         d="M136.717 287.543c-9.6 5.877-15.557 11.374-14.372 13.802 1.63 3.344 16.187-.4 32.513-8.363 16.326-7.963 28.238-17.128 26.607-20.472-1.246-2.556-10.044-.97-21.41 3.473" />
      <path
         id="path146"
         d="M137.277 291.747c-2.63 1.8-4.085 3.196-3.788 3.805.633 1.3 9.016-1.485 18.724-6.22 9.707-4.734 17.062-9.626 16.428-10.925-.311-.639-2.494-.291-5.786.79" />
    </g>
    <g
       id="g156"
       stroke-width="1.8">
      <path
         id="path150"
         d="M764.116 63.514C766.25 58.509 771.216 55 777 55c7.732 0 14 6.268 14 14 0 2.441-.625 4.736-1.723 6.734m-2.368 3.156A13.956 13.956 0 0 1 777 83c-7.732 0-14-6.268-14-14 0-.419.018-.833.054-1.242" />
      <path
         id="path152"
         d="M790.872 69.886c9.672 5.731 15.782 10.912 14.776 12.974-1.385 2.839-15.742-1.314-32.067-9.277-16.326-7.963-28.438-16.72-27.053-19.559 1.058-2.17 9.695-.255 20.996 4.324" />
      <path
         id="path154"
         d="M790.723 73.247c2.63 1.8 4.085 3.196 3.788 3.805-.633 1.3-9.016-1.485-18.724-6.22-9.707-4.734-17.062-9.626-16.428-10.925.311-.639 2.494-.291 5.786.79" />
    </g>
    <g
       id="g160"
       stroke-width="2">
      <path
         id="path158"
         d="M145.5 129.433v-8.476M145.5 140.516v-7.705M146.917 130.85h8.476M135.833 130.85h7.706" />
    </g>
    <g
       id="g164"
       stroke-width="2">
      <path
         id="path162"
         d="M739.5 189.433v-8.476M739.5 200.516v-7.705M740.917 190.85h8.476M729.833 190.85h7.706" />
    </g>
    <path
       id="path166"
       d="M37.5 306.722l.611 7.167 7.167.611-7.167.611-.611 7.167-.611-7.167-7.167-.611 7.167-.611z"
       stroke-width="2" />
    <path
       id="path168"
       d="M5.3 122.252l-2.618.449 1.236-2.351-1.236-2.351 2.618.449 1.854-1.902.382 2.628 2.382 1.176-2.382 1.175-.382 2.629zM141.455 5.776l-1.964.337.927-1.763-.927-1.764 1.964.337 1.39-1.426.287 1.971 1.786.882-1.786.881-.287 1.972z"
       stroke-width="1.5" />
    <circle
       id="circle170"
       stroke-width="1.5"
       r="7.5"
       cy="37.5"
       cx="290.5" />
    <circle
       id="circle172"
       stroke-width="1.5"
       r="7.5"
       cy="321.5"
       cx="779.5" />
    <path
       id="path174"
       d="M849.114 255.039l-1.637.28.773-1.47-.773-1.469 1.637.281 1.159-1.189.238 1.643 1.489.735-1.489.735-.238 1.642zM681.17 291.181l-3.6.618 1.7-3.233-1.7-3.233 3.6.617 2.55-2.615.525 3.614 3.275 1.617-3.275 1.616-.525 3.615zM651.17 91.181l-3.6.618 1.7-3.233-1.7-3.233 3.6.617 2.55-2.615.525 3.614 3.275 1.617-3.275 1.616-.525 3.615z"
       stroke-width="1.5" />
  </g>
  <g
     id="layer1">
    <g
       transform="translate(232.81594,83.491491)"
       style="fill:none;fill-rule:evenodd;stroke:#689bd6;stroke-width:2"
       id="g193">
      <path
         style="fill:#689bd6;fill-opacity:0;fill-rule:nonzero;stroke-linejoin:round"
         d="m 83.193,126.166 -4.487,25.185 A 2,2 0 0 1 76.736,153 H 57.588 a 2,2 0 0 1 -1.969,-2.35 l 4.237,-23.782 a 2,2 0 0 0 -1.97,-2.351 H 5.766 a 4,4 0 0 1 -3.94,-4.693 l 2.781,-15.807 a 4,4 0 0 1 0.784,-1.764 L 76.024,11.543 A 4,4 0 0 1 79.18,10 h 22.429 a 2,2 0 0 1 1.968,2.354 L 88.121,98.232 a 2,2 0 0 0 1.968,2.354 h 8.721 a 2,2 0 0 1 1.97,2.347 l -3.507,19.93 a 2,2 0 0 1 -1.97,1.654 H 85.162 a 2,2 0 0 0 -1.97,1.649 z M 68.008,57.769 37.545,96.51 a 2,2 0 0 0 1.572,3.236 h 21.71 a 4,4 0 0 0 3.936,-3.28 l 6.784,-37.1 a 2,2 0 0 0 -3.54,-1.596 z m 297.185,68.397 -4.487,25.185 a 2,2 0 0 1 -1.97,1.649 h -19.149 a 2,2 0 0 1 -1.969,-2.35 l 4.237,-23.782 a 2,2 0 0 0 -1.97,-2.351 h -52.12 a 4,4 0 0 1 -3.94,-4.693 l 2.781,-15.807 a 4,4 0 0 1 0.784,-1.764 l 70.633,-90.71 A 4,4 0 0 1 361.18,10 h 22.429 a 2,2 0 0 1 1.968,2.354 l -15.455,85.878 a 2,2 0 0 0 1.968,2.354 h 8.721 a 2,2 0 0 1 1.97,2.347 l -3.507,19.93 a 2,2 0 0 1 -1.97,1.654 h -10.141 a 2,2 0 0 0 -1.97,1.649 z m -15.185,-68.397 -30.463,38.74 a 2,2 0 0 0 1.572,3.236 h 21.71 a 4,4 0 0 0 3.936,-3.28 l 6.784,-37.1 a 2,2 0 0 0 -3.54,-1.596 z"
         id="path187" />
      <path
         d="M 197.893,49.58 C 154.769,47.4 167.446,1.593 204.589,18.686 220.056,25.804 226,51 197.893,49.579 Z m 39.88,12.873 c -7.52,-5.412 -10.496,-15.97 -5.83,-21.696 4.66,-5.72 16.952,-6.618 24.38,3.104 10.62,13.896 -3.52,29.41 -18.55,18.592 z m 12.576,51.264 c -11,9 -25.008,8.094 -30.364,1.54 -13.304,-16.278 4.452,-36.514 18.823,-36.523 28.541,-0.017 22.541,25.983 11.541,34.983 z M 202.127,81.534 C 191.254,93.067 172.611,79.507 185.233,66.128 197.232,53.409 213,70 202.127,81.534 Z m -71.81,-9.298 c 11.56,-30.383 44.206,-6.316 31.482,12.513 -12.725,18.83 -44.352,21.316 -31.482,-12.513 z M 147,137 c -5,-4 -6.047,-19.55 12,-18 5.698,0.49 10,8 6,14 -4,6 -13,8 -18,4 z m 23.091,-33.203 C 175.02,89.412 201.957,98.7 201,112 c -0.957,13.3 -35.836,6.182 -30.909,-8.203 z m 24.429,38.94 c -0.19,-6.706 3.808,-13.836 13.904,-13.418 10.096,0.418 12.89,14.537 5.096,18.418 -7.796,3.88 -18.811,1.706 -19,-5 z"
         id="path189" />
      <path
         d="m 158.43,157.163 c 40.597,18.075 91.68,-6.315 109.83,-47.08 18.15,-40.765 3.78,-84.047 -36.817,-102.122 -40.597,-18.075 -89.788,2.94 -107.938,43.705 -18.15,40.765 -5.672,87.422 34.925,105.497 z"
         id="path191" />
    </g>
  </g>
</svg>
