<?xml version="1.0" encoding="UTF-8"?>
<svg width="32px" height="40px" viewBox="0 0 32 40" version="1.1" xmlns="http://www.w3.org/2000/svg" xmlns:xlink="http://www.w3.org/1999/xlink">
    <!-- Generator: Sketch 50.2 (55047) - http://www.bohemiancoding.com/sketch -->
    <title>flaticon1526944547-svg</title>
    <desc>Created with Sketch.</desc>
    <defs></defs>
    <g id="Page-1" stroke="none" stroke-width="1" fill="none" fill-rule="evenodd">
        <g id="Artboard-2" transform="translate(-161.000000, -527.000000)" fill="#FFFFFF" fill-rule="nonzero">
            <g id="flaticon1526944547-svg" transform="translate(161.000000, 527.000000)">
                <path d="M30.9128265,10.7957895 L20.4984016,0.381364522 C20.2653411,0.148148148 19.9355945,0 19.5779337,0 L1.35267057,0 C0.633762183,0 0.0508382066,0.582846004 0.0508382066,1.30183236 L0.0508382066,38.6202729 C0.0508382066,39.3391813 0.633684211,39.9221053 1.35267057,39.9221053 L29.9923587,39.9221053 C30.7112671,39.9221053 31.294191,39.3392593 31.294191,38.6202729 L31.294191,11.7162573 C31.294191,11.385575 31.1631969,11.0460819 30.9128265,10.7957895 Z M20.8797661,4.44460039 L23.8646394,7.42947368 L26.8495906,10.414425 L20.8797661,10.414425 L20.8797661,4.44460039 Z M2.65442495,37.3184405 L2.65442495,2.60358674 L18.2761014,2.60358674 L18.2761014,11.7162573 C18.2761014,12.4351657 18.8589474,13.0180897 19.5779337,13.0180897 L28.6906043,13.0180897 L28.6906043,37.3184405 L2.65442495,37.3184405 Z" id="Shape"></path>
                <path d="M24.7851852,19.0931774 L6.55984405,19.0931774 C5.84093567,19.0931774 5.2580117,19.6760234 5.2580117,20.3950097 C5.2580117,21.1139181 5.8408577,21.6968421 6.55984405,21.6968421 L24.7851852,21.6968421 C25.5040936,21.6968421 26.0870175,21.1139961 26.0870175,20.3950097 C26.0869396,19.6760234 25.5040936,19.0931774 24.7851852,19.0931774 Z" id="Shape"></path>
                <path d="M24.7851852,24.3003509 L6.55984405,24.3003509 C5.84093567,24.3003509 5.2580117,24.8831969 5.2580117,25.6021832 C5.2580117,26.3211696 5.8408577,26.9040156 6.55984405,26.9040156 L24.7851852,26.9040156 C25.5040936,26.9040156 26.0870175,26.3211696 26.0870175,25.6021832 C26.0870175,24.8831969 25.5040936,24.3003509 24.7851852,24.3003509 Z" id="Shape"></path>
                <path d="M16.974347,29.5076023 L6.55984405,29.5076023 C5.84093567,29.5076023 5.2580117,30.0904483 5.2580117,30.8094347 C5.2580117,31.5284211 5.8408577,32.1112671 6.55984405,32.1112671 L16.974269,32.1112671 C17.6931774,32.1112671 18.2761014,31.5284211 18.2761014,30.8094347 C18.2761014,30.0904483 17.6932554,29.5076023 16.974347,29.5076023 Z" id="Shape"></path>
            </g>
        </g>
    </g>
</svg>