<?xml version="1.0" encoding="UTF-8"?>
<svg width="40px" height="40px" viewBox="0 0 40 40" version="1.1" xmlns="http://www.w3.org/2000/svg" xmlns:xlink="http://www.w3.org/1999/xlink">
    <!-- Generator: Sketch 50.2 (55047) - http://www.bohemiancoding.com/sketch -->
    <title>flaticon1530115066-svg copy</title>
    <desc>Created with Sketch.</desc>
    <defs></defs>
    <g id="Page-1" stroke="none" stroke-width="1" fill="none" fill-rule="evenodd">
        <g id="Artboard-2" transform="translate(-157.000000, -464.000000)" fill="#3AB4D0" fill-rule="nonzero">
            <g id="flaticon1530115066-svg-copy" transform="translate(157.000000, 464.000000)">
                <path d="M20,16.015625 C17.8029687,16.015625 16.015625,17.8030469 16.015625,20 C16.015625,22.1969531 17.8029687,23.984375 20,23.984375 C22.1970313,23.984375 23.984375,22.1969531 23.984375,20 C23.984375,17.8030469 22.1970313,16.015625 20,16.015625 Z M20,21.640625 C19.0953125,21.640625 18.359375,20.9046094 18.359375,20 C18.359375,19.0953906 19.0953125,18.359375 20,18.359375 C20.9046875,18.359375 21.640625,19.0953906 21.640625,20 C21.640625,20.9046094 20.9046875,21.640625 20,21.640625 Z" id="Shape" opacity="0.600000024"></path>
                <path d="M36.7169531,18.828125 C36.4400781,14.7932031 34.736875,11.0377344 31.8495312,8.15039062 C28.9622656,5.263125 25.2067969,3.55992188 21.171875,3.28304688 L21.171875,0 L18.828125,0 L18.828125,3.28304688 C14.7932031,3.55992188 11.0377344,5.263125 8.15046875,8.15039062 C5.263125,11.0377344 3.55992188,14.7932031 3.28304688,18.828125 L0,18.828125 L0,21.171875 L3.28304688,21.171875 C3.55992188,25.2067969 5.263125,28.9621875 8.15046875,31.8496094 C11.0377344,34.736875 14.7932812,36.4400781 18.828125,36.7169531 L18.828125,40 L21.171875,40 L21.171875,36.7169531 C25.2067969,36.4400781 28.9622656,34.736875 31.8495312,31.8496094 C34.7367969,28.9622656 36.44,25.2067969 36.7169531,21.171875 L40,21.171875 L40,18.828125 L36.7169531,18.828125 Z M21.171875,5.63382813 C28.1871094,6.2009375 33.7990625,11.8128906 34.3661719,18.828125 L32.209375,18.828125 C31.6541406,12.9983594 27.0016406,8.34585937 21.171875,7.790625 L21.171875,5.63382813 Z M18.828125,5.63382813 L18.828125,7.790625 C12.9983594,8.34585937 8.34585937,12.9983594 7.790625,18.828125 L5.63375,18.828125 C6.2009375,11.8128906 11.8128906,6.2009375 18.828125,5.63382813 Z M18.828125,34.36625 C11.8128906,33.7990625 6.2009375,28.1871094 5.63375,21.171875 L7.790625,21.171875 C8.34578125,27.0016406 12.9983594,31.6541406 18.828125,32.209375 L18.828125,34.36625 Z M18.828125,27.0639063 L18.828125,29.8523438 C14.2919531,29.3160938 10.6839062,25.7080469 10.1476562,21.171875 L12.9360156,21.171875 L12.9360156,18.828125 L10.1476562,18.828125 C10.6839062,14.2919531 14.2919531,10.6839062 18.828125,10.1476562 L18.828125,12.9360937 L21.171875,12.9360937 L21.171875,10.1476562 C25.7080469,10.6839062 29.3160938,14.2919531 29.8523438,18.828125 L27.0639844,18.828125 L27.0639844,21.171875 L29.8523438,21.171875 C29.3160938,25.7080469 25.7080469,29.3160938 21.171875,29.8523438 L21.171875,27.0639063 L18.828125,27.0639063 Z M21.171875,34.36625 L21.171875,32.209375 C27.0016406,31.6542187 31.6541406,27.0016406 32.209375,21.171875 L34.36625,21.171875 C33.7990625,28.1871094 28.1871094,33.7990625 21.171875,34.36625 Z" id="Shape"></path>
            </g>
        </g>
    </g>
</svg>