<?xml version="1.0" encoding="UTF-8"?>
<svg width="19px" height="16px" viewBox="0 0 19 16" version="1.1" xmlns="http://www.w3.org/2000/svg" xmlns:xlink="http://www.w3.org/1999/xlink">
    <!-- Generator: Sketch 50.2 (55047) - http://www.bohemiancoding.com/sketch -->
    <title>Group</title>
    <desc>Created with Sketch.</desc>
    <defs></defs>
    <g id="Symbols" stroke="none" stroke-width="1" fill="none" fill-rule="evenodd">
        <g id="DAO-Header" transform="translate(-15.000000, -9.000000)">
            <g id="Group" transform="translate(15.000000, 9.000000)">
                <polygon id="Triangle" fill="#FFFFFF" points="9.5 0 19 16 0 16"></polygon>
                <path d="M9.63933333,6.00615385 C10.298,6.00615385 10.5513333,6.84307692 10.5133333,7.26153846 C10.4626667,7.82769231 10.0826667,9.99384615 9.89266667,10.7323077 C9.86733333,10.8923077 9.74066667,11.1630769 9.56333333,11.1630769 C9.5,11.1630769 9.33533333,11.0153846 9.272,10.72 C9.14533333,10.0923077 8.76533333,8.14769231 8.68933333,7.32307692 C8.626,6.42461538 9.196,6.00615385 9.63933333,6.00615385 Z M9.576,11.8153846 C10.1333333,11.8153846 10.5133333,12.2953846 10.5133333,12.7384615 C10.5133333,13.2184615 10.0953333,13.6861538 9.56333333,13.6861538 C9.05666667,13.6861538 8.63866667,13.2923077 8.63866667,12.7384615 C8.63866667,12.1846154 9.13266667,11.8153846 9.576,11.8153846 Z" id="!" fill="#000000"></path>
            </g>
        </g>
    </g>
</svg>