<?xml version="1.0" encoding="UTF-8"?>
<svg width="8px" height="8px" viewBox="0 0 8 8" version="1.1" xmlns="http://www.w3.org/2000/svg" xmlns:xlink="http://www.w3.org/1999/xlink">
    <!-- Generator: Sketch 50.2 (55047) - http://www.bohemiancoding.com/sketch -->
    <title>flaticon1532627888-svg</title>
    <desc>Created with Sketch.</desc>
    <defs></defs>
    <g id="Page-1" stroke="none" stroke-width="1" fill="none" fill-rule="evenodd">
        <g id="Overtime" transform="translate(-53.000000, -270.000000)" fill="#FF0048" fill-rule="nonzero">
            <g id="flaticon1532627888-svg" transform="translate(53.000000, 270.000000)">
                <path d="M4,0 C1.79440099,0 0,1.79440099 0,4 C0,6.20559901 1.79440099,8 4,8 C6.20559901,8 8,6.20559901 8,4 C8,1.79440099 6.20559901,0 4,0 Z M4,7.14886785 C2.26372993,7.14886785 0.851049815,5.73635241 0.851049815,4 C0.851049815,2.26364759 2.26372993,0.851132153 4,0.851132153 C5.73627007,0.851132153 7.14895019,2.26364759 7.14895019,4 C7.14895019,5.73635241 5.73627007,7.14886785 4,7.14886785 Z" id="Shape"></path>
                <path d="M6.10145461,3.88060104 L4.29193614,3.88060104 L4.29193614,1.72980257 C4.29193614,1.54880776 4.14349131,1.40206186 3.96040106,1.40206186 C3.77731081,1.40206186 3.62886598,1.54880776 3.62886598,1.72980257 L3.62886598,4.20834176 C3.62886598,4.38933657 3.77731081,4.53608247 3.96040106,4.53608247 L6.10145461,4.53608247 C6.28454486,4.53608247 6.43298969,4.38933657 6.43298969,4.20834176 C6.43298969,4.02734694 6.28454486,3.88060104 6.10145461,3.88060104 Z" id="Shape"></path>
            </g>
        </g>
    </g>
</svg>