<?xml version="1.0" encoding="UTF-8"?>
<svg width="20px" height="17px" viewBox="0 0 20 17" version="1.1" xmlns="http://www.w3.org/2000/svg" xmlns:xlink="http://www.w3.org/1999/xlink">
    <!-- Generator: Sketch 48.2 (47327) - http://www.bohemiancoding.com/sketch -->
    <title>Mask</title>
    <desc>Created with Sketch.</desc>
    <defs></defs>
    <g id="MVP-Proposal-Object---Predictions" stroke="none" stroke-width="1" fill="none" fill-rule="evenodd" transform="translate(-138.000000, -380.000000)">
        <path d="M157.451712,387.449056 C152.750824,385.409066 149.329022,383.883618 146.82267,382.765442 C141.934511,380.586361 140.619971,380 139.704521,380 C138.91907,380 138.532708,380.476361 138.405436,380.631815 C137.924529,381.22454 137.866348,382.061809 138.258164,382.713624 L141.599967,388.283598 L138.259073,393.851754 C137.866348,394.504478 137.925438,395.340838 138.406345,395.933563 C138.533617,396.090835 138.919979,396.567196 139.706339,396.567196 L139.706339,396.567196 C140.62088,396.567196 141.929965,395.982653 146.796306,393.812663 C149.305386,392.693578 152.734461,391.163585 157.452621,389.117231 C157.784437,388.971777 157.998982,388.644505 157.998982,388.282689 C157.998982,387.920872 157.784437,387.592692 157.451712,387.449056 Z M139.892702,381.84181 C140.619971,381.9909 142.555417,382.854532 146.081764,384.427252 C147.81812,385.201794 150.001746,386.174517 152.733552,387.373602 L143.174505,387.373602 L143.174505,387.373602 L139.892702,381.84181 Z M146.055401,392.151762 C142.471781,393.750845 140.538154,394.61266 139.849066,394.733568 L143.174505,389.190867 L152.734461,389.190867 C149.98811,390.398134 147.795393,391.375402 146.055401,392.151762 Z" id="Mask" fill="#FFFFFF"></path>
    </g>
</svg>