<?xml version="1.0" encoding="UTF-8"?>
<svg width="15px" height="15px" viewBox="0 0 15 15" version="1.1" xmlns="http://www.w3.org/2000/svg" xmlns:xlink="http://www.w3.org/1999/xlink">
    <!-- Generator: Sketch 51.3 (57544) - http://www.bohemiancoding.com/sketch -->
    <title>vote/ x small copy</title>
    <desc>Created with Sketch.</desc>
    <defs></defs>
    <g id="vote/-x-small-copy" stroke="none" stroke-width="1" fill="none" fill-rule="evenodd">
        <g id="Group" transform="translate(3.650000, 4.200000)" fill="#9AA9B5" fill-rule="nonzero" stroke="#9AA9B5" stroke-width="0.2">
            <polygon id="Path-2" points="0.922096783 1.01539524 1.6089368 0.333284696 7.05626489 5.82600921 6.36942487 6.50811976"></polygon>
            <path d="M6.36942487,0.333284696 L7.05626489,1.01539524 L1.6089368,6.50811976 L0.922096783,5.82600921 L6.36942487,0.333284696 Z M7.05626489,1.01539524 L1.6089368,6.50811976 L0.922096783,5.82600921 L6.36942487,0.333284696 L7.05626489,1.01539524 Z" id="Path-2"></path>
        </g>
        <path d="M7.5,13.8973684 C11.033169,13.8973684 13.8973684,11.033169 13.8973684,7.5 C13.8973684,3.96683098 11.033169,1.10263158 7.5,1.10263158 C3.96683098,1.10263158 1.10263158,3.96683098 1.10263158,7.5 C1.10263158,11.033169 3.96683098,13.8973684 7.5,13.8973684 Z M7.5,14.65 C3.55116404,14.65 0.35,11.448836 0.35,7.5 C0.35,3.55116404 3.55116404,0.35 7.5,0.35 C11.448836,0.35 14.65,3.55116404 14.65,7.5 C14.65,11.448836 11.448836,14.65 7.5,14.65 Z" id="Oval" stroke="#9AA9B5" stroke-width="0.2" fill="#9AA9B5" fill-rule="nonzero"></path>
    </g>
</svg>