<?xml version="1.0" encoding="UTF-8"?>
<svg width="15px" height="18px" viewBox="0 0 15 18" version="1.1" xmlns="http://www.w3.org/2000/svg" xmlns:xlink="http://www.w3.org/1999/xlink">
    <!-- Generator: Sketch 51.3 (57544) - http://www.bohemiancoding.com/sketch -->
    <title>vote/against</title>
    <desc>Created with Sketch.</desc>
    <defs></defs>
    <g id="vote/against" stroke="none" stroke-width="1" fill="none" fill-rule="evenodd">
        <path d="M0,17.6280206 L0,9.62802056 L5,9.62802056 L5,17.6189576 L0,17.6280206 Z M1,16.6189576 L4,16.6189576 L4,10.6280206 L1,10.6280206 L1,16.6189576 Z M13.3181818,8.62128147 C14.2496793,8.62128147 15,9.31336147 15,10.2541053 L15,11.4612482 C15,11.6721098 14.958388,11.8793154 14.875525,12.094957 L12.5952268,16.5725851 C12.3376691,17.1995849 11.7307326,17.6189576 11.0454545,17.6189576 L5.93506494,17.6189576 L4,17.6189576 L4,10.1280206 L4.5,10.1280206 L4.96944745,9.95591859 L4.39868908,9.63846821 L4.18931323,9.73640025 C4.1577916,9.76280645 4.1577916,9.76280645 4.12717421,9.7950794 C4.1018632,9.82545413 4.1018632,9.82545413 4.09542007,9.83466286 C4.12904185,9.78072544 4.12904185,9.78072544 4.16897452,9.71771125 C4.24605744,9.59642824 4.31644188,9.48841376 4.38793002,9.3832949 C4.4230105,9.33196419 4.4230105,9.33196419 4.4588994,9.28063342 C4.54724773,9.1550983 4.62546382,9.0525808 4.69708745,8.97218572 L6.96630937,4.01177752 L8.00191487,4 L8.63288673,4.63844903 C8.88850079,4.89954053 9.01618483,5.25301385 9.01618483,5.62802056 C9.01618483,5.65838104 9.01618483,6.65613468 9.01618483,8.62128147 L13.3181818,8.62128147 Z M11.0454545,16.6189576 C11.3195045,16.6189576 11.5646869,16.4495448 11.6715204,16.1894988 L13.947408,11.7229843 C13.9825034,11.631374 14,11.5442505 14,11.4612482 L14,10.2541053 C14,9.86095636 13.6925934,9.62128147 13.3181818,9.62128147 L8,9.62128147 L8.00815931,5.62802056 C7.99784521,5.48532557 7.96845143,5.38921933 7.91997795,5.33970184 L7.15794349,5.62828885 L5.52687545,9.53254283 L5.45861268,9.62128147 C5.4201833,9.66107951 5.35519653,9.74459851 5.27667882,9.85616518 C5.24583301,9.90028159 5.24583301,9.90028159 5.21482978,9.94564424 C5.15011425,10.0408044 5.08494276,10.1408189 5.01294216,10.2541053 C5.00967927,10.2592542 5.00536522,12.3808717 5,16.6189576 L11.0454545,16.6189576 Z" id="Shape-Copy" fill="#F65050" fill-rule="nonzero" transform="translate(7.500000, 10.814010) scale(1, -1) translate(-7.500000, -10.814010) "></path>
    </g>
</svg>