<?xml version="1.0" encoding="UTF-8"?>
<svg width="15px" height="18px" viewBox="0 0 15 18" version="1.1" xmlns="http://www.w3.org/2000/svg" xmlns:xlink="http://www.w3.org/1999/xlink">
    <!-- Generator: Sketch 51.3 (57544) - http://www.bohemiancoding.com/sketch -->
    <title>vote/for-fill</title>
    <desc>Created with Sketch.</desc>
    <defs></defs>
    <g id="vote/for-fill" stroke="none" stroke-width="1" fill="none" fill-rule="evenodd">
        <path d="M0,14 L3,14 L3,7 L0,7 L0,14 Z M15,7.36071429 C15,6.69376786 14.4304545,6.15357143 13.7272727,6.15357143 L9.70863636,6.15357143 L9.31636364,2.46667857 C9.32909091,2.40632143 9.33863636,2.34294643 9.33863636,2.27655357 C9.33863636,2.02607143 9.23045455,1.79973214 9.05863636,1.63676786 L8.38090909,1 L5.19045455,5.90308929 C4.96136364,6.12339286 4.81818182,6.42517857 4.81818182,6.75714286 L4.81818182,12.7928571 C4.81818182,13.4598036 5.38772727,14 6.09090909,14 L11.8181818,14 C12.3463636,14 12.7981818,13.6951964 12.9890909,13.2636429 L14.9077273,9.00846429 C14.965,8.86964286 15,8.72176786 15,8.56785714 L15,7.41201786 L15,7.36071429 Z" id="Shape-Copy-2" fill="#7D8B96" fill-rule="nonzero"></path>
    </g>
</svg>