<?xml version="1.0" encoding="UTF-8"?>
<svg width="15px" height="18px" viewBox="0 0 15 18" version="1.1" xmlns="http://www.w3.org/2000/svg" xmlns:xlink="http://www.w3.org/1999/xlink">
    <!-- Generator: Sketch 51.3 (57544) - http://www.bohemiancoding.com/sketch -->
    <title>vote/for-btn-selected</title>
    <desc>Created with Sketch.</desc>
    <defs></defs>
    <g id="vote/for-btn-selected" stroke="none" stroke-width="1" fill="none" fill-rule="evenodd">
        <path d="M1,13 L3.5,13 L3.5,5.96826726 L1,5.96826726 L1,13 Z M15,6.36071429 C15,5.69376786 14.4400823,5.15357143 13.7487873,5.15357143 L9.79808334,5.15357143 L9.41244172,1.46667857 C9.42495385,1.40632143 9.43433794,1.34294643 9.43433794,1.27655357 C9.43433794,1.02607143 9.32798487,0.799732143 9.15907116,0.636767857 L8.49280041,0 L5.35627838,4.90308929 C5.1310601,5.12339286 4.99029867,5.42517857 4.99029867,5.75714286 L4.99029867,11.7928571 C4.99029867,12.4598036 5.55021634,13 6.24151134,13 L11.8719683,13 C12.3912216,13 12.8354021,12.6951964 13.023084,12.2636429 L14.9092871,8.00846429 C14.9655917,7.86964286 15,7.72176786 15,7.56785714 L15,6.41201786 L15,6.36071429 Z" id="Shape-Copy" fill="#0076FF" fill-rule="nonzero"></path>
    </g>
</svg>